<svg width="949" height="590" viewBox="0 0 949 590" fill="none" xmlns="http://www.w3.org/2000/svg">
<path d="M284.279 336.419V399.774C284.279 408.834 276.822 416.152 267.59 416.152H256.725C247.493 416.152 240.037 423.471 240.037 432.531V457.343C240.037 466.404 247.493 473.722 256.725 473.722H519.052C528.284 473.722 535.74 481.04 535.74 490.101V510.801C535.74 519.861 543.197 527.179 552.428 527.179H565.779C575.011 527.179 582.467 519.861 582.467 510.801V465.289C582.467 456.228 589.924 448.91 599.156 448.91H814.329C823.561 448.91 831.017 441.592 831.017 432.531V358.235" stroke="#231F20" stroke-width="4" stroke-linecap="round" stroke-linejoin="round"/>
<path d="M151.205 109.981C169.328 92.1948 169.328 63.3543 151.205 45.5747C133.075 27.7811 103.697 27.7811 85.5739 45.5747C67.4511 63.3543 67.4511 92.1948 85.5739 109.981C103.697 127.768 133.075 127.768 151.205 109.981Z" fill="#328AE2"/>
<path d="M92.4197 76.506C92.4197 76.506 99.2513 61.1519 119.036 61.1519C137.592 61.1519 144.416 76.506 144.416 76.506" stroke="black" stroke-width="4" stroke-linecap="round" stroke-linejoin="round"/>
<path d="M104.194 86.5915C104.194 86.5915 107.098 75.6631 119.036 75.6631C129.525 75.6631 132.592 86.5915 132.592 86.5915" stroke="black" stroke-width="4" stroke-linecap="round" stroke-linejoin="round"/>
<path d="M114.093 95.296C114.093 95.296 118.39 88.5424 122.693 95.296" stroke="black" stroke-width="4" stroke-linecap="round" stroke-linejoin="round"/>
<path d="M381.646 159.027L337.539 145.485V124.116H322.598L245.399 191.708L322.598 267.963H337.539V246.594L381.646 233.052V159.027Z" fill="#3C2C5B"/>
<path opacity="0.3" d="M342.589 147.019L337.539 145.485V246.594L354.824 241.29L342.589 147.019Z" fill="black"/>
<path d="M292.715 253.299H216.581V304.275H292.715V253.299Z" fill="#F3EBE9"/>
<path d="M272.078 253.299H195.951V304.275H272.078V253.299Z" fill="#3C2C5B"/>
<path d="M308.367 294.497H383.074V342.678H308.367L261.973 321.03L308.367 294.497Z" fill="#3C2C5B"/>
<path d="M308.367 294.497H131.208V342.678H308.367V294.497Z" fill="#1B1918"/>
<path d="M322.598 124.116H145.432V267.963H322.598V124.116Z" fill="#1B1918"/>
<path d="M301.251 145.067H166.779V247.013H301.251V145.067Z" fill="#F3EBE9"/>
<path d="M297.693 304.971H236.508V317.538H297.693V304.971Z" fill="black"/>
<path d="M337.539 145.485V246.594" stroke="black" stroke-width="4" stroke-linecap="round" stroke-linejoin="round"/>
<path d="M185.988 165.314H234.37" stroke="#1B1918" stroke-width="4" stroke-linecap="round" stroke-linejoin="round"/>
<path d="M185.988 179.281H208.755" stroke="#1B1918" stroke-width="4" stroke-linecap="round" stroke-linejoin="round"/>
<path d="M185.988 200.232H221.566" stroke="#1B1918" stroke-width="4" stroke-linecap="round" stroke-linejoin="round"/>
<path d="M884.682 40.9331L914.657 335.109C916.965 357.802 895.704 376.237 867.021 376.314L434.204 377.422C405.628 377.491 380.616 359.175 378.308 336.482L348.333 42.3061C346.018 19.6129 367.287 1.17811 395.863 1.10841L828.673 0.0002398C857.249 -0.0764266 882.367 18.2399 884.682 40.9331Z" fill="white"/>
<path d="M565.737 67.3276L551.896 172.535" stroke="#3C2C5B" stroke-width="4" stroke-linecap="round" stroke-linejoin="round"/>
<path d="M424.312 190.063L544.723 172.535L491.953 129.246" stroke="#3C2C5B" stroke-width="4" stroke-linecap="round" stroke-linejoin="round"/>
<path d="M499.679 306.666L549.19 175.984" stroke="#3C2C5B" stroke-width="4" stroke-linecap="round" stroke-linejoin="round"/>
<path d="M553.707 174.186L609.914 188.683" stroke="#3C2C5B" stroke-width="4" stroke-linecap="round" stroke-linejoin="round"/>
<path d="M553.572 178.675L598.715 246.671" stroke="#3C2C5B" stroke-width="4" stroke-linecap="round" stroke-linejoin="round"/>
<path d="M602.586 247.919L715.654 243.221L715.669 105.849" stroke="#3C2C5B" stroke-width="4" stroke-linecap="round" stroke-linejoin="round"/>
<path d="M719.425 243.639L813.974 215.607" stroke="#3C2C5B" stroke-width="4" stroke-linecap="round" stroke-linejoin="round"/>
<path d="M714.944 249.438L697.084 295.758" stroke="#3C2C5B" stroke-width="4" stroke-linecap="round" stroke-linejoin="round"/>
<path d="M721.946 247.919L855.318 314.256" stroke="#3C2C5B" stroke-width="4" stroke-linecap="round" stroke-linejoin="round"/>
<path d="M551.377 183.512C545.746 183.512 540.675 179.024 540.051 173.497C539.426 167.977 543.495 163.488 549.126 163.488C554.75 163.488 559.828 167.977 560.446 173.497C561.071 179.024 557.002 183.512 551.377 183.512Z" fill="#328AE2"/>
<path d="M423.275 201.459C428.906 201.459 432.968 196.977 432.343 191.45C431.718 185.917 426.655 181.435 421.017 181.435C415.385 181.435 411.323 185.917 411.948 191.45C412.566 196.977 417.636 201.459 423.275 201.459Z" fill="#328AE2"/>
<path d="M612.165 198.699C617.804 198.699 621.866 194.217 621.241 188.683C620.616 183.156 615.553 178.675 609.914 178.675C604.283 178.675 600.221 183.156 600.846 188.683C601.464 194.217 606.534 198.699 612.165 198.699Z" fill="#328AE2"/>
<path d="M601.421 259.446C607.053 259.446 611.115 254.965 610.49 249.438C609.872 243.904 604.801 239.422 599.17 239.422C593.531 239.422 589.469 243.904 590.094 249.438C590.719 254.965 595.79 259.446 601.421 259.446Z" fill="#328AE2"/>
<path d="M716.777 253.229C722.415 253.229 726.47 248.748 725.852 243.221C725.227 237.694 720.157 233.212 714.525 233.212C708.894 233.212 704.832 237.694 705.45 243.221C706.075 248.748 711.145 253.229 716.777 253.229Z" fill="#328AE2"/>
<path d="M693.917 312.597C699.548 312.597 703.61 308.115 702.993 302.589C702.368 297.062 697.297 292.58 691.666 292.58C686.027 292.58 681.972 297.062 682.59 302.589C683.215 308.115 688.286 312.597 693.917 312.597Z" fill="#328AE2"/>
<path d="M856.859 322.954C862.49 322.954 866.552 318.472 865.928 312.945C865.31 307.412 860.239 302.937 854.608 302.937C848.969 302.937 844.907 307.412 845.532 312.945C846.157 318.472 851.228 322.954 856.859 322.954Z" fill="#328AE2"/>
<path d="M817.07 225.616C822.701 225.616 826.763 221.141 826.138 215.607C825.513 210.08 820.45 205.599 814.812 205.599C809.18 205.599 805.118 210.08 805.743 215.607C806.361 221.141 811.431 225.616 817.07 225.616Z" fill="#328AE2"/>
<path d="M716.791 115.857C722.429 115.857 726.484 111.376 725.866 105.849C725.241 100.315 720.171 95.8403 714.539 95.8403C708.908 95.8403 704.846 100.315 705.471 105.849C706.089 111.376 711.159 115.857 716.791 115.857Z" fill="#328AE2"/>
<path d="M499.473 316.054C505.105 316.054 509.167 311.573 508.542 306.039C507.924 300.512 502.853 296.03 497.215 296.03C491.583 296.03 487.521 300.512 488.146 306.039C488.764 311.573 493.835 316.054 499.473 316.054Z" fill="#328AE2"/>
<path d="M495.056 139.331C500.694 139.331 504.749 134.85 504.132 129.316C503.507 123.789 498.436 119.307 492.805 119.307C487.173 119.307 483.111 123.789 483.729 129.316C484.354 134.85 489.424 139.331 495.056 139.331Z" fill="#328AE2"/>
<path d="M566.532 74.4368C572.17 74.4368 576.225 69.9553 575.607 64.4284C574.983 58.9014 569.912 54.4199 564.281 54.4199C558.649 54.4199 554.587 58.9014 555.205 64.4284C555.83 69.9553 560.9 74.4368 566.532 74.4368Z" fill="#328AE2"/>
<path d="M818.149 524.363C811.836 507.636 796.333 486.434 782.585 467.575C780.412 464.543 778.168 461.588 776.066 458.625L775.924 458.486L839.538 443.411L842.415 444.791C845.22 448.645 847.393 451.949 849.637 455.461C855.744 465.1 861.212 475.081 865.913 485.473C868.228 490.637 870.401 495.732 872.503 501.168L867.525 539.306L818.149 524.363Z" fill="#F5BE98"/>
<path opacity="0.3" d="M791.355 479.618C788.408 475.561 785.461 471.498 782.585 467.505C780.412 464.48 779.432 463.169 777.259 460.207L775.995 458.416L832.877 442.177L833.019 442.449C821.096 448.784 810.359 457.113 801.312 466.954C794.721 474.181 791.703 479.555 791.632 479.618L791.497 479.827L791.355 479.618Z" fill="#835E44"/>
<path d="M694.705 161.459C692.532 162.142 690.217 162.491 687.902 162.421C681.589 162.421 676.256 160.288 673.663 156.706C669.381 150.991 669.31 144.314 673.244 132.201C672.818 131.65 669.807 127.866 670.368 125.454C670.716 124.081 672.818 123.043 676.54 122.562L676.887 121.391C678.855 115.613 680.673 110.518 682.853 106.315C685.935 100.398 694.911 101.911 701.927 99.2969C706.557 97.5057 706.273 97.3036 711.187 97.3663C720.654 97.3663 724.375 95.6518 730.617 101.158C740.573 109.967 739.174 124.694 737.42 133.713L735.801 134.884C734.963 140.188 736.575 157.396 734.402 167.997V168.136L695.337 170.269L693.931 166.136L694.705 161.459Z" fill="#F5BE98"/>
<path opacity="0.3" d="M694.705 161.46L700.102 159.32C700.315 159.257 700.457 159.188 700.663 159.188C701.089 159.188 701.508 159.39 701.714 159.738C701.927 160.08 701.998 160.491 701.785 160.909L698.213 168.889L693.931 166.136L694.705 161.46Z" fill="#835E44"/>
<path d="M690.217 528.155C690.004 522.851 689.372 518.446 689.095 516.515C687.76 507.295 686.148 496.004 684.046 482.169L697.51 369.274L744.01 463.309C745.203 468.536 747.028 477.625 747.731 482.378C749.478 493.592 750.394 504.883 750.536 516.244C750.536 520.098 750.6 524.022 750.465 528.015L727.741 567.526L690.217 528.155Z" fill="#F5BE98"/>
<path opacity="0.3" d="M692.596 445.201L697.155 375.951C697.297 374.16 699.754 373.679 700.528 375.261L743.939 463.169C744.01 463.309 744.081 463.441 744.081 463.58C744.358 464.821 744.642 466.264 744.919 467.853C745.48 470.467 746.041 473.429 746.538 476.042C746.673 476.663 746.396 477.283 745.906 477.694L731.81 489.055C731.036 489.668 729.914 489.536 729.282 488.846L692.88 446.512C692.667 446.101 692.532 445.613 692.596 445.201Z" fill="#835E44"/>
<path d="M659.915 578.197L659.567 577.507C660.895 575.646 662.372 574.064 664.126 572.691C665.035 572.001 666.086 571.109 667.35 570.14C672.123 566.425 678.642 561.33 683.059 556.786C688.321 551.28 690.778 541.362 690.217 528.148V528.008H703.262C708.517 528.008 713.36 530.831 715.889 535.306L726.896 555.065C726.967 555.134 727.038 555.134 727.038 555.065L729.914 539.641C731.178 532.964 737.136 528.078 744.081 528.078H750.394V528.21C749.904 544.875 748.15 561.261 744.919 577.577C744.919 577.577 744.919 577.577 744.919 577.646L744.429 578.197H744.358H659.915Z" fill="#2929B8"/>
<path d="M581.572 214.464C578.554 208.539 577.013 204.413 576.729 203.793C575.891 203.584 568.527 201.793 562.143 192.642C561.795 193.332 560.46 195.395 558.074 195.395C556.391 195.395 554.566 194.433 552.535 192.433C547.692 187.686 547.06 184.313 547.415 182.313C547.621 180.87 548.466 179.699 549.73 179.009C548.814 176.807 548.743 174.883 549.517 173.231C550.078 171.991 551.129 170.959 552.464 170.339C550.149 165.655 553.586 162.491 554.424 161.801C553.167 161.181 552.045 160.56 550.923 159.94C544.12 156.434 539.695 154.162 539.695 151.13C539.695 149.757 540.611 148.105 544.958 148.105C549.659 148.105 557.236 150.168 565.225 153.612C573.647 157.187 581.572 161.94 588.653 167.655C594.895 172.883 602.543 180.18 611.803 189.68L611.732 191.06L583.113 214.945L581.572 214.464Z" fill="#F5BE98"/>
<path d="M762.176 300.574C754.393 289.151 745.977 283.227 745.345 282.746L679.764 282.265L679.551 281.714L671.696 245.646C669.594 247.228 649.888 262.164 633.967 262.164C633.47 262.164 632.979 262.164 632.489 262.095C622.107 261.474 601.698 254.526 581.643 214.534L581.572 214.464L611.803 189.68L611.867 189.749C622.739 200.971 631.999 211.362 633.122 212.603C659.212 179.009 680.538 173.984 690.913 173.984C691.197 173.984 691.474 173.984 691.687 173.984H692.106C692.177 173.984 692.248 173.984 692.319 173.984L693.931 166.136H735.524C735.524 166.136 734.615 170.611 734.402 171.573C735.943 171.782 748.853 173.984 757.759 183.623C761.686 187.749 775.363 193.192 780.76 206.818C784.062 214.945 779.077 228.78 781.257 236.349C783.004 242.475 784.339 248.26 785.113 253.285C788.55 274.766 776.201 293.277 762.318 300.505L762.176 300.574Z" fill="#00D4FF"/>
<path opacity="0.3" d="M745.345 282.746L745.416 281.714L752.354 242.614C758.035 244.615 759.094 251.633 760.216 259.139C761.125 264.987 762.034 270.974 765.052 275.727C770.591 284.467 777.117 287.22 777.117 287.22C773.048 292.935 767.857 297.619 762.389 300.442C762.389 300.442 745.48 282.815 745.345 282.746Z" fill="black"/>
<path d="M783.217 236.488C782.166 236.488 781.321 236.349 781.321 236.349C781.321 236.349 779.78 231.463 779.361 230.292C775.15 219.001 773.822 214.394 766.458 198.559C760.982 201.173 752.915 202.413 746.815 202.344C738.613 202.274 730.475 200.761 723.601 196.426C717.777 192.844 710.413 185.484 708.517 170.339C707.821 164.763 707.956 159.118 708.801 153.612L708.872 153.542C708.872 153.542 727.67 145.213 723.53 133.03C722.479 129.859 719.674 128.207 715.327 128.207C708.943 128.207 701.153 131.72 701.153 131.72C701.089 131.65 693.299 122.492 699.122 113.202C699.264 112.992 699.051 112.721 698.845 112.79C697.02 113.202 695.266 113.48 693.37 113.48C684.465 113.48 682.853 106.385 682.853 106.385V106.315C686.219 99.8476 690.423 95.9934 696.807 93.6516C701.437 91.8604 706.344 90.9683 711.258 91.038C720.725 91.038 729.772 94.1325 736.085 99.6385C745.551 108.037 743.733 123.593 741.624 134.403L741.553 134.612C745.061 134.131 748.569 133.853 752.077 133.853C764.278 133.853 786.022 136.884 794.65 157.055C799.067 167.516 800.331 183.072 790.51 195.597C792.193 196.148 804.606 200.559 806.574 210.122C807.98 216.248 806.361 222.653 802.299 227.469C797.668 232.843 790.02 236.488 783.217 236.488Z" fill="#30242A"/>
<path d="M684.046 482.169C683.13 476.112 682.221 470.125 681.305 464.341C679.345 451.259 677.52 439.145 676.611 432.677C667.066 364.73 675.489 297.41 679.551 281.854V281.714H745.416H745.48C769.895 302.094 778.445 326.801 790.936 361.496C797.107 378.572 802.789 389.235 813.235 406.653C817.794 414.229 823.127 420.557 828.318 426.684C831.123 429.987 833.715 433.089 836.101 436.253C838.487 439.354 840.589 442.107 842.486 444.791L729.843 471.429C729.772 471.429 729.772 471.429 729.772 471.359L701.579 391.647C701.579 391.577 701.437 391.577 701.437 391.647L701.785 477.966C701.785 478.036 701.785 478.036 701.714 478.036L684.046 482.169Z" fill="#2929B8"/>
<path d="M701.295 391.647L692.667 281.714" stroke="black" stroke-width="4" stroke-linecap="round" stroke-linejoin="round"/>
<path d="M655.917 589V588.867C655.846 584.804 657.11 580.88 659.496 577.577L659.567 577.507H744.99V577.646C744.294 581.431 743.307 585.215 742.185 588.867L655.917 589Z" fill="black"/>
<path d="M808.257 588.937C806.574 585.216 806.084 581.02 806.993 576.956L807.419 576.545L884.846 543.495L885.407 543.774C886.252 547.558 886.955 551.489 887.445 555.413V555.483L808.257 588.937Z" fill="black"/>
<path d="M807.277 576.817C807.135 576.887 806.993 576.747 807.064 576.615C807.554 574.615 808.257 572.621 809.237 570.76C809.663 569.938 810.224 568.9 810.785 567.798C813.519 562.641 817.723 554.863 820.18 548.736C822.637 542.471 822.005 534.553 818.22 524.433C818.22 524.363 818.22 524.294 818.284 524.231L830.768 518.788C835.398 516.794 840.803 517.415 844.943 520.307L861.986 532.281C862.121 532.351 862.263 532.281 862.263 532.142L859.877 518.376C858.755 511.909 862.263 505.503 868.434 502.89L872.574 501.099L872.645 501.238C877.971 515.003 882.254 529.186 885.478 543.572C885.478 543.642 885.478 543.711 885.407 543.781L807.277 576.817Z" fill="#2929B8"/>
<path d="M688.811 545.363L701.856 548.046" stroke="black" stroke-width="4" stroke-linecap="round" stroke-linejoin="round"/>
<path d="M685.097 554.242L696.246 562.16" stroke="black" stroke-width="4" stroke-linecap="round" stroke-linejoin="round"/>
<path d="M727.109 554.995L723.743 577.507" stroke="black" stroke-width="4" stroke-linecap="round" stroke-linejoin="round"/>
<path d="M862.192 532.072L867.035 551.691" stroke="black" stroke-width="4" stroke-linecap="round" stroke-linejoin="round"/>
<path d="M821.657 540.199L832.316 541.161" stroke="black" stroke-width="4" stroke-linecap="round" stroke-linejoin="round"/>
<path d="M820.18 548.806L831.052 552.862" stroke="black" stroke-width="4" stroke-linecap="round" stroke-linejoin="round"/>
<path d="M752.354 242.614L745.416 281.714H679.551" stroke="black" stroke-width="4" stroke-linecap="round" stroke-linejoin="round"/>
<path d="M761.473 264.436L748.782 262.234" stroke="black" stroke-width="4" stroke-linecap="round" stroke-linejoin="round"/>
<path d="M633.122 212.603L626.105 221.761" stroke="black" stroke-width="4" stroke-linecap="round" stroke-linejoin="round"/>
<path d="M671.696 245.646L686.425 232.083" stroke="black" stroke-width="4" stroke-linecap="round" stroke-linejoin="round"/>
<path d="M554.424 161.794C560.176 162.205 566.141 163.655 571.403 165.99" stroke="#835E44" stroke-width="4" stroke-linecap="round" stroke-linejoin="round"/>
<path d="M552.464 170.339C559.267 170.75 567.895 173.573 567.895 173.573" stroke="#835E44" stroke-width="4" stroke-linecap="round" stroke-linejoin="round"/>
<path d="M549.73 179.009C553.586 178.319 562.356 180.661 563.684 181.832" stroke="#835E44" stroke-width="4" stroke-linecap="round" stroke-linejoin="round"/>
<path d="M694.705 161.46C698.213 160.01 700.102 159.32 700.102 159.32" stroke="#835E44" stroke-width="4" stroke-linecap="round" stroke-linejoin="round"/>
<path d="M710.271 139.156L705.364 141.909" stroke="#835E44" stroke-width="4" stroke-linecap="round" stroke-linejoin="round"/>
<path d="M766.458 198.559C773.467 195.806 774.099 192.844 774.099 192.844" stroke="#231F21" stroke-width="4" stroke-linecap="round" stroke-linejoin="round"/>
<path d="M790.51 195.597C788.827 197.597 786.654 199.458 784.623 201.11" stroke="#231F21" stroke-width="4" stroke-linecap="round" stroke-linejoin="round"/>
<path d="M741.553 134.605L739.032 145.339" stroke="#231F21" stroke-width="4" stroke-linecap="round" stroke-linejoin="round"/>
<path d="M683.62 135.713C681.518 138.466 677.307 138.466 677.307 138.466" stroke="#835E44" stroke-width="4" stroke-linecap="round" stroke-linejoin="round"/>
<path d="M683.975 126.765C684.941 126.765 685.729 125.991 685.729 125.043C685.729 124.095 684.941 123.322 683.975 123.322C683.002 123.322 682.221 124.095 682.221 125.043C682.221 125.991 683.002 126.765 683.975 126.765Z" fill="#231F20"/>
<path opacity="0.3" d="M671.696 245.646L680.744 237.317C681.305 236.899 683.201 236.697 683.904 236.697C684.884 236.697 685.729 237.728 686.354 238.488C686.986 239.171 687.199 240.14 686.986 241.102C684.813 251.702 676.817 266.987 676.746 267.189L676.469 267.74L671.696 245.646Z" fill="black"/>
<path d="M407.815 572.175L373.018 587.055H335.885L357.075 404.283C357.53 400.345 361.159 397.48 365.242 397.926C366.797 398.115 368.288 398.749 369.389 399.766L390.381 418.787C393.427 421.519 395.302 425.206 395.693 429.213L407.815 572.175Z" fill="#1B1918"/>
<path d="M422.913 414.082H382.541C377.293 414.082 373.018 418.278 373.018 423.428V587.055H389.671L408.781 568.425L413.382 559.267L422.913 414.082Z" fill="#00D4FF"/>
<path d="M465.031 587.055H389.671L410.854 404.283C411.309 400.345 414.938 397.48 419.021 397.926C420.576 398.115 422.067 398.749 423.168 399.766L444.16 418.787C447.206 421.519 449.088 425.206 449.479 429.213L465.031 587.055Z" fill="#1B1918"/>
<path d="M359.404 510.11L356.812 564.167" stroke="black" stroke-width="4" stroke-linecap="round" stroke-linejoin="round"/>
<path d="M426.279 402.568L422.913 587.055" stroke="black" stroke-width="4" stroke-linecap="round" stroke-linejoin="round"/>
<path opacity="0.3" d="M373.018 587.055H422.913L425.696 434.81C425.696 434.81 409.235 526.83 373.018 552.653V587.055Z" fill="black"/>
<path d="M880.145 459.141L868.356 392.483L936.274 404.053L920.516 419.512L949 447.467L924.379 471.631L895.895 443.676L880.145 459.141Z" fill="#1B1918"/>
<path d="M59.7602 272.556C54.3631 272.556 51.6575 270.87 51.6575 267.496C51.6575 263.524 51.2314 257.195 50.7414 249.786C49.6336 233.345 48.2204 212.924 50.4289 203.585C53.7453 189.917 68.2322 185.031 80.6312 185.031C85.3537 185.031 90.204 185.7 94.5571 187.025C108 190.997 110.642 201.48 113.646 213.586C114.015 215.154 114.448 216.715 114.817 218.284C115.492 218.402 119.973 219.245 120.335 221.057C120.832 223.406 117.637 226.417 117.211 226.835C119.476 239.729 117.331 247.8 110.393 252.198C107.084 254.303 103.704 255.327 100.025 255.327C97.0142 255.327 93.6979 254.609 91.3047 253.947L91.8586 264.485L91.8018 264.548C91.4893 264.667 71.3 272.556 59.7602 272.556Z" fill="#F5BE98"/>
<path d="M139.673 301.529C139.488 301.111 120.889 259.906 119.235 256.714C118.432 255.146 117.573 253.522 117.083 251.836C116.898 251.055 116.657 250.086 117.026 249.368C117.573 248.162 119.235 248.581 120.215 248.887C123.531 249.968 126.293 252.316 128.992 254.428C130.036 255.209 131.016 256.052 132.124 256.777C132.983 257.321 134.084 257.983 135.007 257.258C136.235 256.296 135.433 254.547 134.758 253.522C133.714 251.954 132.244 250.692 130.774 249.605C128.502 247.981 126.23 246.894 124.206 245.932C121.259 244.545 119.171 243.583 119.171 241.716C119.171 237.38 128.133 238.705 130.647 239.004C135.682 239.666 140.716 240.991 145.134 243.521C149.678 246.113 153.478 249.912 155.814 254.547C161.524 265.81 162.56 267.74 169.747 280.69L169.932 282.976L139.673 301.773V301.529Z" fill="#F5BE98"/>
<path d="M32.0789 389.897C31.8374 389.779 4.89465 378.753 0.839739 360.743C-1.06344 352.429 0.285826 340.503 4.71001 326.285C8.38855 314.304 14.2827 301.048 20.7237 289.848C32.2635 269.97 49.5697 263.642 51.0468 263.161L51.1107 258.282H91.5533L91.9793 262.799C114.2 263.76 129.667 279.303 129.787 279.421C129.851 279.484 137.151 287.255 142.002 293.221L169.683 280.446L169.747 280.571C178.34 295.932 195.951 333.213 174.775 347.975C170.173 351.167 164.712 352.791 158.633 352.791C138.998 352.791 117.942 335.924 115.854 334.238L109.477 371.281L39.7555 371.344C36.6238 377.429 34.046 383.214 32.3274 389.779L32.2635 389.897H32.0789Z" fill="#2929B8"/>
<path opacity="0.2" d="M32.0789 389.897C27.1718 387.792 22.4423 385.2 18.0891 382.189L17.9045 382.063L17.9613 382.008C23.614 377.003 25.0201 369.957 26.4333 363.21C27.9672 355.864 29.3804 348.937 35.7006 344.539L35.8853 344.42L39.4431 370.619L40.3663 371.525C37.2345 377.672 34.1028 383.213 32.3275 389.897L32.2635 390.016L32.0789 389.897Z" fill="#292929"/>
<path opacity="0.2" d="M87.9316 371.77L106.956 326.948L115.918 334.238L109.477 371.282L87.9316 371.77Z" fill="#292929"/>
<path d="M90.9426 548.799V548.68C91.674 539.16 92.9665 529.528 94.7418 520.126L97.7528 511.274L157.838 512.236L156.368 520.251C154.706 525.667 152.867 533.8 152.498 537.236L137.4 564.16L90.9426 548.799Z" fill="#F5BE98"/>
<path d="M90.9426 574.643L89.4016 572.893C89.4016 568.314 89.9555 555.845 90.0833 553.859C90.3248 549.642 91.184 545.489 91.5533 542.052C106.346 544.464 116.657 548.081 122.977 550.785C128.807 553.26 133.061 556.02 132.983 555.971L130.774 542.478C130.711 542.052 130.647 541.572 130.647 541.153C130.647 536.63 134.396 533.02 138.934 533.02H153.172C152.008 538.679 153.052 545.245 155.139 550.611C156.979 555.309 160.295 559.1 163.974 562.474C164.591 563.017 165.202 563.617 165.877 564.16C168.888 566.871 171.707 569.401 173.795 572.775L173.553 575.124L90.9426 574.643Z" fill="#CECECE"/>
<path d="M94.5571 520.433C99.4713 495.251 108 470.913 119.661 447.962L106.956 447.363C88.1161 447.363 73.8139 442.066 65.5905 432.001C58.837 423.749 56.6924 412.486 59.4548 400.317C63.6873 382.426 70.1354 381.046 70.1354 381.046C73.3878 381.402 150.41 382.552 173.979 410.019C189.816 428.447 175.393 467.665 163.789 499.168C160.906 506.939 158.271 514.223 156.304 520.551L94.5571 520.433Z" fill="#00D4FF"/>
<path opacity="0.2" d="M159.677 509.825C159.62 509.769 150.658 504.228 139.978 482.601C134.211 470.976 125.491 468.564 119.235 468.564C113.83 468.564 109.662 470.376 109.598 470.376L109.349 470.495L109.477 470.195C112.602 462.361 116.039 454.771 119.788 447.544C119.788 447.544 121.322 444.233 123.836 439.473C129.24 429.471 135.433 420.195 144.026 420.195C149.614 420.195 155.565 423.993 162.319 431.883C163.604 433.388 164.833 434.775 165.997 436.037C175.272 446.457 179.93 451.642 172.751 473.868C169.988 482.42 166.921 490.672 163.973 498.806C162.56 502.597 161.211 506.277 159.99 509.769L159.926 509.888L159.677 509.825Z" fill="black"/>
<path d="M156.595 553.859L147.157 557.595" stroke="black" stroke-width="4" stroke-linecap="round" stroke-linejoin="round"/>
<path d="M161.971 560.626L154.337 566.272" stroke="black" stroke-width="4" stroke-linecap="round" stroke-linejoin="round"/>
<path d="M156.368 520.37H94.8696" stroke="black" stroke-width="4" stroke-linecap="round" stroke-linejoin="round"/>
<path d="M182.508 547.719L176.863 544.945L176.621 544.764C174.043 537.899 171.956 531.452 170.116 525.005V519.283L224.186 491.878L225.841 498.381C227.439 506.396 228.483 510.849 229.157 512.418L225.841 547.656L182.508 547.719Z" fill="#F5BE98"/>
<path d="M170.052 525.005C160.167 488.623 160.536 471.275 160.6 448.687L72.1593 448.505C56.5716 448.505 44.9111 444.77 37.5398 437.424C31.2835 431.158 28.1518 422.306 28.4003 411.28C28.8264 388.211 39.3862 370.801 39.5069 370.619H109.598C110.273 370.745 178.34 383.576 196.441 401.404C210.495 415.616 213.932 434.35 218.598 460.256C219.4 464.529 220.195 468.927 221.055 473.568L221.665 476.698C223.143 484.587 224.556 491.996 225.841 498.262L170.052 525.005Z" fill="#00D4FF"/>
<path d="M164.038 498.325C160.231 478.628 159.805 466.034 159.862 449.411" stroke="black" stroke-width="4" stroke-linecap="round" stroke-linejoin="round"/>
<path d="M189.51 574.461C187.053 569.464 185.335 565.485 183.801 561.993L183.737 561.874H183.801C183.062 560.306 182.388 558.619 181.713 556.996C179.81 552.472 177.97 548.318 176.557 544.583L176.863 544.464C185.761 540.491 195.213 538.498 205.098 538.498C214.245 538.498 222.859 541.342 222.34 540.728L215.288 530.727C214.976 530.309 214.735 529.883 214.55 529.465C213.442 527.235 213.321 524.649 214.181 522.293C215.04 519.945 216.758 518.021 219.031 516.934L229.158 512.417C229.342 512.78 230.571 515.066 230.997 515.791C237.566 528.503 245.974 530.852 254.076 533.083C258.003 534.163 261.682 535.187 265.062 537.292L265.247 538.623L190.37 575.124L189.51 574.461Z" fill="#CECECE"/>
<path d="M194.723 584.519C192.82 581.027 191.101 577.716 189.382 574.28L189.326 574.162L264.998 537.236C270.459 540.847 273.037 546.75 273.037 546.75L194.971 584.944L194.723 584.519Z" fill="black"/>
<path d="M241.216 528.141L234.924 535.487" stroke="black" stroke-width="4" stroke-linecap="round" stroke-linejoin="round"/>
<path d="M248.999 531.779L244.866 540.491" stroke="black" stroke-width="4" stroke-linecap="round" stroke-linejoin="round"/>
<path d="M225.72 498.325L170.237 524.886" stroke="black" stroke-width="4" stroke-linecap="round" stroke-linejoin="round"/>
<path d="M50.0668 202.985C53.4399 189.192 68.0475 184.25 80.5673 184.25C85.3537 184.25 90.2608 184.913 94.6211 186.237C105.117 189.373 110.94 197.465 111.011 203.285C111.011 203.285 108.49 205.215 104.748 205.215C102.291 205.215 99.7767 204.372 99.9045 204.497C98.4274 208.589 97.9374 212.743 96.0342 214.91C94.9264 216.234 93.3357 216.896 91.184 216.896C88.0523 216.896 84.9276 215.391 85.2827 215.949C84.6791 216.715 87.2214 224.563 81.9166 229.972L81.8527 230.027L81.7959 229.972C81.732 229.909 73.8778 223.587 67.1244 223.587C64.6105 223.587 62.4587 224.486 60.9248 226.299C59.5756 227.86 58.9648 229.79 59.1495 231.839C59.7602 238.523 68.289 245.514 68.4168 245.57L68.5375 245.695L68.4168 245.814C62.8919 250.086 50.6775 250.448 50.6775 250.448C50.6775 250.448 46.8143 213.767 50.0668 202.985Z" fill="#010005"/>
<path d="M111.686 232.982L105.792 233.163" stroke="#30231A" stroke-width="4" stroke-linecap="round" stroke-linejoin="round"/>
<path d="M107.446 222.138C108.398 222.138 109.165 221.385 109.165 220.451C109.165 219.517 108.398 218.765 107.446 218.765C106.495 218.765 105.728 219.517 105.728 220.451C105.728 221.385 106.495 222.138 107.446 222.138Z" fill="#010005"/>
<path d="M116.103 334.419C111.743 331.108 107.879 327.309 103.952 323.574" stroke="#292929" stroke-width="4" stroke-linecap="round" stroke-linejoin="round"/>
<path d="M141.696 292.733L153.662 307.251" stroke="#292929" stroke-width="4" stroke-linecap="round" stroke-linejoin="round"/>
<path d="M109.477 370.501H39.5069L33.3713 328.334" stroke="#292929" stroke-width="4" stroke-linecap="round" stroke-linejoin="round"/>
<path d="M119.54 448.687H170.237" stroke="black" stroke-width="4" stroke-linecap="round" stroke-linejoin="round"/>
<path d="M91.8017 254.066C86.8875 252.135 83.209 250.449 83.209 250.449" stroke="#30231A" stroke-width="4" stroke-linecap="round" stroke-linejoin="round"/>
<path d="M75.291 238.823L70.1922 234.969" stroke="#30231A" stroke-width="4" stroke-linecap="round" stroke-linejoin="round"/>
<path d="M89.7141 585.062V584.944C89.5862 580.846 89.4016 576.81 89.4016 572.893L89.5862 572.775L173.859 572.837C174.533 574.036 174.959 575.242 175.449 576.566C176.493 579.222 176.927 582.051 176.927 584.944V585.062H89.7141Z" fill="black"/>
<path d="M58.8442 463.699C62.6434 463.699 65.7681 466.717 65.7681 470.446L65.7183 488.1V561.142C65.7183 564.871 62.6434 567.889 58.8442 567.889C55.0449 567.889 51.97 564.871 51.97 561.142V470.446C51.9132 466.717 54.9881 463.699 58.8442 463.699Z" fill="white"/>
<path opacity="0.2" d="M58.8442 463.699C54.9881 463.699 51.9132 466.717 51.97 470.446V494.241L65.7183 488.1L65.7681 470.446C65.7183 466.717 62.6434 463.699 58.8442 463.699Z" fill="#2C2C2C"/>
<path d="M107.063 576.936C106.111 576.113 59.235 535.919 59.235 535.919H58.397C58.397 535.919 11.5205 576.113 10.5689 576.936C9.3972 577.591 8.11184 580.825 9.95821 582.909C11.4069 584.665 13.9776 585.104 15.9376 583.843C16.0441 583.787 41.6945 566.516 57.0548 556.152C58.12 555.441 59.4551 555.441 60.5203 556.152C75.8807 566.516 101.588 583.787 101.638 583.843C103.654 585.104 106.275 584.609 107.617 582.909C109.52 580.769 108.235 577.591 107.063 576.936Z" fill="#1B1918"/>
<path d="M47.6665 533.285H69.9579C71.3001 533.285 72.3653 534.33 72.3653 535.64V547.377H45.2094V535.64C45.2663 534.33 46.3315 533.285 47.6665 533.285Z" fill="#3C2C5B"/>
<path d="M45.2662 459.427H72.422V477.681C72.422 478.615 71.6409 479.437 70.6325 479.437H46.999C46.0474 479.437 45.2662 478.67 45.2662 477.681V459.427Z" fill="#3C2C5B"/>
<path d="M18.6714 448.568H98.9601C104.322 448.568 108.625 452.841 108.625 458.054C108.625 463.316 104.265 467.54 98.9601 467.54H18.6714C13.3098 467.54 9.00637 463.26 9.00637 458.054C9.00637 452.841 13.3666 448.568 18.6714 448.568Z" fill="#1B1918"/>
</svg>
