<svg width="70" height="69" viewBox="0 0 70 69" fill="none" xmlns="http://www.w3.org/2000/svg">
<rect x="12" width="58" height="55" fill="#E17F62" fill-opacity="0.5"/>
<path d="M37.5 36.5H47.5" stroke="#0D365C" stroke-width="2" stroke-miterlimit="10" stroke-linecap="square"/>
<path d="M37.5 46.5H47.5" stroke="#0D365C" stroke-width="2" stroke-miterlimit="10" stroke-linecap="square"/>
<path d="M10 51.5C10 47.3575 13.3575 44 17.5 44H22.5C26.6425 44 30 47.3575 30 51.5H10Z" fill="#0D365C"/>
<path d="M47.5 16.5C47.5 19.2625 45.2625 21.5 42.5 21.5C39.7375 21.5 37.5 19.2625 37.5 16.5H22.5C22.5 19.2625 20.2625 21.5 17.5 21.5C14.7375 21.5 12.5 19.2625 12.5 16.5H2.5V61.5H57.5V16.5H47.5Z" stroke="#0D365C" stroke-width="3" stroke-miterlimit="10" stroke-linecap="square"/>
<path d="M20 41.5C22.7614 41.5 25 39.2615 25 36.5C25 33.7386 22.7614 31.5 20 31.5C17.2386 31.5 15 33.7386 15 36.5C15 39.2615 17.2386 41.5 20 41.5Z" fill="#0D365C"/>
</svg>
