<svg width="78" height="68" viewBox="0 0 78 68" fill="none" xmlns="http://www.w3.org/2000/svg">
<path d="M18 30L63 4.01924L63 55.9808L18 30Z" fill="#3FB4E7" fill-opacity="0.5"/>
<g clip-path="url(#clip0_187_57)">
<path d="M7.6793 7.89919V7.9H36.3715H36.3841L36.384 7.90078C37.1428 7.99624 37.8953 8.26283 38.4967 8.75881C39.3657 9.4417 39.9039 10.513 39.946 11.6149L39.9462 11.6187H39.9461C39.9465 13.5097 39.9461 15.4007 39.9457 17.2916C39.9449 21.0713 39.9441 24.851 39.9496 28.6307L39.9497 28.7307L39.8498 28.7309C39.5359 28.7314 39.2221 28.7294 38.9087 28.7273H38.9085L38.9081 28.7273C38.5947 28.7253 38.2818 28.7232 37.9689 28.7238L37.8689 28.724L37.8687 28.624C37.8629 24.9084 37.864 21.1929 37.8686 17.4785C34.153 17.4789 30.4375 17.4785 26.7219 17.478C19.8821 17.4772 13.0422 17.4763 6.20185 17.4808C6.19415 25.083 6.19537 32.6849 6.1966 40.2869C6.19758 46.362 6.19856 52.4371 6.19498 58.5123C12.1915 58.5261 18.1879 58.5242 24.1845 58.5223C28.7458 58.5209 33.3071 58.5194 37.8686 58.5249C37.8645 55.8848 37.865 53.2445 37.8655 50.6044C37.8658 48.9033 37.8661 47.2022 37.8652 45.5012L37.8652 45.4014L37.965 45.4012C38.1565 45.4008 38.3485 45.3996 38.5409 45.3983C38.9751 45.3955 39.4109 45.3927 39.8454 45.4L39.9437 45.4017V45.5C39.9437 47.2618 39.9444 49.0237 39.945 50.7856C39.9467 55.3168 39.9483 59.8483 39.9391 64.3803V64.3812C39.9173 66.2986 38.272 67.9385 36.3929 68.0996L36.3844 68.1004V68.1H7.6875H7.67428L7.6744 68.0991C7.00702 68.0109 6.34145 67.7983 5.7812 67.4001C4.75519 66.7032 4.10455 65.4903 4.11523 64.246C4.1164 55.4952 4.11611 46.7447 4.11582 37.9943C4.11553 29.2438 4.11523 20.4935 4.1164 11.7432C4.1164 11.7431 4.1164 11.743 4.1164 11.743L4.2164 11.743C4.21172 10.6766 4.70156 9.62773 5.51015 8.93516L7.6793 7.89919ZM7.6793 7.89919L7.66667 7.9008C6.85906 8.00354 6.06347 8.30982 5.4444 8.85981L7.6793 7.89919ZM37.8677 14.9639C37.868 15.1096 37.8683 15.2553 37.8686 15.4011C32.5895 15.3947 27.3105 15.3959 22.0316 15.3971H22.0306C16.7516 15.3982 11.4726 15.3994 6.1936 15.3931C6.19903 14.82 6.19769 14.2471 6.19636 13.6748C6.19627 13.6357 6.19618 13.5965 6.19609 13.5574C6.19463 12.9128 6.19375 12.269 6.20309 11.6254C6.24817 10.6895 7.14667 9.91842 8.07965 9.97715L8.07964 9.97734L8.08595 9.97734C9.25335 9.9772 10.4208 9.97703 11.5882 9.97687C19.7594 9.97571 27.9307 9.97456 36.1019 9.97969L36.1024 9.97969C37.0338 9.97526 37.8819 10.8066 37.8664 11.7413L37.8664 11.7427C37.8634 12.8165 37.8655 13.8903 37.8677 14.9639ZM8.0883 66.0215L8.0883 66.0213L8.08187 66.0217C7.14984 66.0815 6.2493 65.3126 6.20426 64.3781C6.19321 63.6619 6.19481 62.949 6.19641 62.2351C6.19762 61.6959 6.19883 61.1561 6.19459 60.6138C12.0767 60.5984 17.9586 60.6006 23.8409 60.6027C28.5165 60.6044 33.1924 60.6061 37.8687 60.599C37.8686 61.0193 37.8674 61.44 37.8663 61.8609C37.8641 62.6566 37.8619 63.4529 37.8664 64.2482L37.8664 64.2499C37.8874 65.1864 37.0385 66.0203 36.1055 66.0203H36.1054C26.7668 66.0262 17.427 66.0238 8.0883 66.0215Z" fill="#0D365C" stroke="#0D365C" stroke-width="0.2"/>
<path d="M17.9431 11.707L17.9429 11.7061L17.9298 11.7106C17.4808 11.8658 17.1721 12.3452 17.2529 12.8256C17.3161 13.3867 17.8689 13.7783 18.4079 13.7273C19.2131 13.7277 20.0182 13.7275 20.8233 13.7272C22.4353 13.7267 24.0471 13.7262 25.659 13.7308C26.1562 13.7673 26.6712 13.4478 26.7876 12.9382C26.8747 12.6247 26.7865 12.2973 26.6001 12.0538C26.4136 11.8102 26.1213 11.6411 25.7901 11.6558C24.7008 11.6437 23.6082 11.6459 22.5163 11.6481C21.6109 11.6499 20.7061 11.6517 19.8042 11.6453L19.8042 11.6451L19.7978 11.6455C19.5707 11.6585 19.3433 11.6534 19.1113 11.6481C19.035 11.6464 18.9583 11.6447 18.8809 11.6436C18.5713 11.6391 18.2556 11.6451 17.9431 11.707Z" fill="#0D365C" stroke="#0D365C" stroke-width="0.2"/>
<mask id="path-4-outside-1_187_57" maskUnits="userSpaceOnUse" x="6.95935" y="22.9275" width="30" height="30" fill="black">
<rect fill="white" x="6.95935" y="22.9275" width="30" height="30"/>
<path d="M18.4676 25.6226C18.6644 24.7801 19.3992 24.0875 20.2629 23.9726C20.966 23.8836 21.675 23.9586 22.3816 23.9316C23.2406 23.9351 24.2262 23.8344 24.907 24.4777C25.7332 25.1633 25.6723 26.3152 25.8551 27.2762C26.1703 27.4062 26.4855 27.5398 26.8008 27.6734C27.5941 27.1121 28.3406 26.2555 29.4082 26.3515C30.3785 26.3586 31.05 27.125 31.6746 27.7625C32.1551 28.2629 32.7023 28.7012 33.1312 29.2484C33.6691 29.9527 33.6937 30.9887 33.2027 31.7246C32.9086 32.164 32.584 32.5824 32.2629 33.0019C32.4234 33.3957 32.591 33.7871 32.7586 34.1773C33.3926 34.2922 34.05 34.3051 34.6629 34.5183C35.468 34.8113 36.0621 35.6094 36.082 36.4707C36.1078 37.4902 36.1102 38.5121 36.082 39.5316C36.0586 40.4598 35.373 41.3058 34.4789 41.5414C33.9141 41.6844 33.3305 41.7301 32.7562 41.825C32.6273 42.1402 32.4937 42.4543 32.3543 42.766C32.9098 43.5664 33.7793 44.314 33.6984 45.3805C33.6762 46.4515 32.7551 47.123 32.0859 47.8308C31.3816 48.5152 30.7289 49.4644 29.6473 49.5008C28.5785 49.6133 27.8039 48.7707 26.9859 48.2351C26.6203 48.4086 26.2488 48.5703 25.8691 48.7121C25.7625 49.2406 25.7144 49.7785 25.6113 50.3082C25.4262 51.2176 24.6152 51.9699 23.6836 52.0414C22.9383 52.0988 22.1906 52.0484 21.4441 52.0648C20.8687 52.0719 20.2676 52.107 19.725 51.8808C19.0969 51.616 18.6258 51.0336 18.4676 50.375C18.3387 49.8301 18.2906 49.2711 18.2133 48.7191C17.8922 48.5844 17.5664 48.459 17.2406 48.3371C16.7473 48.7027 16.2879 49.1211 15.7477 49.4176C14.9086 49.8664 13.8176 49.6473 13.1519 48.9887C12.4945 48.3547 11.8488 47.7078 11.1937 47.0726C10.6031 46.4926 10.3336 45.5797 10.616 44.7875C10.8691 44.1031 11.3848 43.5664 11.7926 42.9746C11.6238 42.5914 11.4633 42.2047 11.3086 41.8156C10.7074 41.7242 10.0934 41.6879 9.50742 41.5203C8.72695 41.2906 8.1082 40.5828 8.00273 39.7742C7.92304 39.1824 7.98047 38.5848 7.96992 37.9918C7.97578 37.3613 7.91836 36.7262 8.02265 36.1015C8.18203 35.2871 8.8582 34.6109 9.66679 34.4316C10.2105 34.3191 10.7637 34.2547 11.3133 34.1785C11.4387 33.8609 11.5652 33.5433 11.6977 33.2281C11.1363 32.4301 10.2773 31.6812 10.3629 30.6125C10.3781 29.6398 11.168 28.9859 11.7902 28.3473C12.4055 27.7473 12.948 27.0453 13.7074 26.6199C14.2406 26.3105 14.9449 26.2801 15.4676 26.6281C16.0066 26.982 16.5164 27.3758 17.032 27.7613C17.4234 27.5961 17.8184 27.4379 18.2133 27.282C18.2848 26.7265 18.3457 26.1687 18.4676 25.6226ZM20.298 26.0492C20.1164 26.9387 20.0531 27.848 19.8891 28.741C19.166 28.9496 18.4383 29.1582 17.7715 29.5144C17.4727 29.6492 17.2102 29.8765 16.8844 29.9445C16.1402 29.4851 15.4828 28.8957 14.7469 28.4246C14.5687 28.2828 14.3602 28.4094 14.2336 28.5488C13.6453 29.1371 13.0652 29.7336 12.484 30.3289C12.3891 30.4508 12.2379 30.5562 12.2332 30.7262C12.2707 30.8867 12.3797 31.0168 12.4723 31.1492C12.9598 31.782 13.4543 32.409 13.9172 33.0605C13.3875 33.9254 13.0266 34.8793 12.7711 35.8578C11.9168 36.0078 11.0531 36.0969 10.1988 36.241C10.0172 36.2504 9.8332 36.3746 9.85312 36.5773C9.82851 37.441 9.86836 38.307 9.8414 39.1719C9.84961 39.3652 9.81445 39.6793 10.0723 39.7262C10.9617 39.9148 11.8758 39.9664 12.7687 40.1457C13.043 41.1945 13.4578 42.2 14.0156 43.1293C13.534 43.7773 13.0641 44.4348 12.5812 45.0805C12.4676 45.2551 12.259 45.5 12.4805 45.6781C13.0547 46.3121 13.7004 46.8805 14.3004 47.4922C14.4586 47.6246 14.6355 47.8672 14.8711 47.7547C15.6562 47.2812 16.2984 46.5805 17.1094 46.1539C17.9941 46.6226 18.9164 47.014 19.8879 47.2648C20.0461 48.1191 20.1199 48.9863 20.2734 49.8406C20.2828 50.0187 20.4141 50.1992 20.6121 50.1793C21.4734 50.1933 22.3371 50.1734 23.1996 50.1898C23.4023 50.1875 23.7223 50.2074 23.7644 49.9402C23.9379 49.0496 24.0152 48.1414 24.1746 47.2473C25.0769 47.034 25.9559 46.707 26.7539 46.2324C26.8898 46.1656 27.0187 46.0648 27.1758 46.0566C27.8473 46.4832 28.4625 46.9941 29.1117 47.4523C29.243 47.5273 29.3695 47.6574 29.5359 47.6316C29.8113 47.532 29.9894 47.2836 30.1945 47.0879C30.7043 46.5406 31.2598 46.0367 31.7484 45.4719C31.9348 45.2937 31.7344 45.0699 31.6324 44.9117C31.1367 44.2531 30.6164 43.6133 30.143 42.9394C30.5953 42.1683 30.975 41.3492 31.1883 40.4785C31.2398 40.3531 31.2351 40.1363 31.4156 40.1269C32.2641 39.9605 33.1336 39.9137 33.9797 39.7297C34.132 39.7133 34.2187 39.5539 34.2094 39.4133C34.2246 38.5121 34.2117 37.6121 34.2164 36.7109C34.2293 36.5363 34.1859 36.2973 33.9762 36.2691C33.0937 36.0816 32.1867 36.0371 31.3066 35.8426C31.1988 35.6527 31.1707 35.4301 31.1051 35.2262C30.8766 34.3906 30.4664 33.6242 30.0469 32.873C30.5238 32.2215 31.0008 31.5699 31.4801 30.9207C31.6008 30.7496 31.793 30.5 31.5797 30.3148C30.934 29.6433 30.2613 28.993 29.5852 28.3508C29.2875 28.0203 28.9348 28.4199 28.6769 28.5957C28.0969 29.0023 27.5871 29.5285 26.9531 29.8449C26.4855 29.6422 26.0519 29.3644 25.5715 29.1898C25.1273 28.9871 24.6398 28.9074 24.1898 28.7269C23.9777 27.8457 23.9543 26.9293 23.7574 26.0457C23.7129 25.7844 23.3977 25.816 23.2008 25.8101C22.3394 25.8277 21.4758 25.8043 20.6144 25.8219C20.4738 25.8125 20.3168 25.8992 20.298 26.0492Z"/>
</mask>
<path d="M18.4676 25.6226C18.6644 24.7801 19.3992 24.0875 20.2629 23.9726C20.966 23.8836 21.675 23.9586 22.3816 23.9316C23.2406 23.9351 24.2262 23.8344 24.907 24.4777C25.7332 25.1633 25.6723 26.3152 25.8551 27.2762C26.1703 27.4062 26.4855 27.5398 26.8008 27.6734C27.5941 27.1121 28.3406 26.2555 29.4082 26.3515C30.3785 26.3586 31.05 27.125 31.6746 27.7625C32.1551 28.2629 32.7023 28.7012 33.1312 29.2484C33.6691 29.9527 33.6937 30.9887 33.2027 31.7246C32.9086 32.164 32.584 32.5824 32.2629 33.0019C32.4234 33.3957 32.591 33.7871 32.7586 34.1773C33.3926 34.2922 34.05 34.3051 34.6629 34.5183C35.468 34.8113 36.0621 35.6094 36.082 36.4707C36.1078 37.4902 36.1102 38.5121 36.082 39.5316C36.0586 40.4598 35.373 41.3058 34.4789 41.5414C33.9141 41.6844 33.3305 41.7301 32.7562 41.825C32.6273 42.1402 32.4937 42.4543 32.3543 42.766C32.9098 43.5664 33.7793 44.314 33.6984 45.3805C33.6762 46.4515 32.7551 47.123 32.0859 47.8308C31.3816 48.5152 30.7289 49.4644 29.6473 49.5008C28.5785 49.6133 27.8039 48.7707 26.9859 48.2351C26.6203 48.4086 26.2488 48.5703 25.8691 48.7121C25.7625 49.2406 25.7144 49.7785 25.6113 50.3082C25.4262 51.2176 24.6152 51.9699 23.6836 52.0414C22.9383 52.0988 22.1906 52.0484 21.4441 52.0648C20.8687 52.0719 20.2676 52.107 19.725 51.8808C19.0969 51.616 18.6258 51.0336 18.4676 50.375C18.3387 49.8301 18.2906 49.2711 18.2133 48.7191C17.8922 48.5844 17.5664 48.459 17.2406 48.3371C16.7473 48.7027 16.2879 49.1211 15.7477 49.4176C14.9086 49.8664 13.8176 49.6473 13.1519 48.9887C12.4945 48.3547 11.8488 47.7078 11.1937 47.0726C10.6031 46.4926 10.3336 45.5797 10.616 44.7875C10.8691 44.1031 11.3848 43.5664 11.7926 42.9746C11.6238 42.5914 11.4633 42.2047 11.3086 41.8156C10.7074 41.7242 10.0934 41.6879 9.50742 41.5203C8.72695 41.2906 8.1082 40.5828 8.00273 39.7742C7.92304 39.1824 7.98047 38.5848 7.96992 37.9918C7.97578 37.3613 7.91836 36.7262 8.02265 36.1015C8.18203 35.2871 8.8582 34.6109 9.66679 34.4316C10.2105 34.3191 10.7637 34.2547 11.3133 34.1785C11.4387 33.8609 11.5652 33.5433 11.6977 33.2281C11.1363 32.4301 10.2773 31.6812 10.3629 30.6125C10.3781 29.6398 11.168 28.9859 11.7902 28.3473C12.4055 27.7473 12.948 27.0453 13.7074 26.6199C14.2406 26.3105 14.9449 26.2801 15.4676 26.6281C16.0066 26.982 16.5164 27.3758 17.032 27.7613C17.4234 27.5961 17.8184 27.4379 18.2133 27.282C18.2848 26.7265 18.3457 26.1687 18.4676 25.6226ZM20.298 26.0492C20.1164 26.9387 20.0531 27.848 19.8891 28.741C19.166 28.9496 18.4383 29.1582 17.7715 29.5144C17.4727 29.6492 17.2102 29.8765 16.8844 29.9445C16.1402 29.4851 15.4828 28.8957 14.7469 28.4246C14.5687 28.2828 14.3602 28.4094 14.2336 28.5488C13.6453 29.1371 13.0652 29.7336 12.484 30.3289C12.3891 30.4508 12.2379 30.5562 12.2332 30.7262C12.2707 30.8867 12.3797 31.0168 12.4723 31.1492C12.9598 31.782 13.4543 32.409 13.9172 33.0605C13.3875 33.9254 13.0266 34.8793 12.7711 35.8578C11.9168 36.0078 11.0531 36.0969 10.1988 36.241C10.0172 36.2504 9.8332 36.3746 9.85312 36.5773C9.82851 37.441 9.86836 38.307 9.8414 39.1719C9.84961 39.3652 9.81445 39.6793 10.0723 39.7262C10.9617 39.9148 11.8758 39.9664 12.7687 40.1457C13.043 41.1945 13.4578 42.2 14.0156 43.1293C13.534 43.7773 13.0641 44.4348 12.5812 45.0805C12.4676 45.2551 12.259 45.5 12.4805 45.6781C13.0547 46.3121 13.7004 46.8805 14.3004 47.4922C14.4586 47.6246 14.6355 47.8672 14.8711 47.7547C15.6562 47.2812 16.2984 46.5805 17.1094 46.1539C17.9941 46.6226 18.9164 47.014 19.8879 47.2648C20.0461 48.1191 20.1199 48.9863 20.2734 49.8406C20.2828 50.0187 20.4141 50.1992 20.6121 50.1793C21.4734 50.1933 22.3371 50.1734 23.1996 50.1898C23.4023 50.1875 23.7223 50.2074 23.7644 49.9402C23.9379 49.0496 24.0152 48.1414 24.1746 47.2473C25.0769 47.034 25.9559 46.707 26.7539 46.2324C26.8898 46.1656 27.0187 46.0648 27.1758 46.0566C27.8473 46.4832 28.4625 46.9941 29.1117 47.4523C29.243 47.5273 29.3695 47.6574 29.5359 47.6316C29.8113 47.532 29.9894 47.2836 30.1945 47.0879C30.7043 46.5406 31.2598 46.0367 31.7484 45.4719C31.9348 45.2937 31.7344 45.0699 31.6324 44.9117C31.1367 44.2531 30.6164 43.6133 30.143 42.9394C30.5953 42.1683 30.975 41.3492 31.1883 40.4785C31.2398 40.3531 31.2351 40.1363 31.4156 40.1269C32.2641 39.9605 33.1336 39.9137 33.9797 39.7297C34.132 39.7133 34.2187 39.5539 34.2094 39.4133C34.2246 38.5121 34.2117 37.6121 34.2164 36.7109C34.2293 36.5363 34.1859 36.2973 33.9762 36.2691C33.0937 36.0816 32.1867 36.0371 31.3066 35.8426C31.1988 35.6527 31.1707 35.4301 31.1051 35.2262C30.8766 34.3906 30.4664 33.6242 30.0469 32.873C30.5238 32.2215 31.0008 31.5699 31.4801 30.9207C31.6008 30.7496 31.793 30.5 31.5797 30.3148C30.934 29.6433 30.2613 28.993 29.5852 28.3508C29.2875 28.0203 28.9348 28.4199 28.6769 28.5957C28.0969 29.0023 27.5871 29.5285 26.9531 29.8449C26.4855 29.6422 26.0519 29.3644 25.5715 29.1898C25.1273 28.9871 24.6398 28.9074 24.1898 28.7269C23.9777 27.8457 23.9543 26.9293 23.7574 26.0457C23.7129 25.7844 23.3977 25.816 23.2008 25.8101C22.3394 25.8277 21.4758 25.8043 20.6144 25.8219C20.4738 25.8125 20.3168 25.8992 20.298 26.0492Z" fill="#0D365C"/>
<path d="M18.4676 25.6226C18.6644 24.7801 19.3992 24.0875 20.2629 23.9726C20.966 23.8836 21.675 23.9586 22.3816 23.9316C23.2406 23.9351 24.2262 23.8344 24.907 24.4777C25.7332 25.1633 25.6723 26.3152 25.8551 27.2762C26.1703 27.4062 26.4855 27.5398 26.8008 27.6734C27.5941 27.1121 28.3406 26.2555 29.4082 26.3515C30.3785 26.3586 31.05 27.125 31.6746 27.7625C32.1551 28.2629 32.7023 28.7012 33.1312 29.2484C33.6691 29.9527 33.6937 30.9887 33.2027 31.7246C32.9086 32.164 32.584 32.5824 32.2629 33.0019C32.4234 33.3957 32.591 33.7871 32.7586 34.1773C33.3926 34.2922 34.05 34.3051 34.6629 34.5183C35.468 34.8113 36.0621 35.6094 36.082 36.4707C36.1078 37.4902 36.1102 38.5121 36.082 39.5316C36.0586 40.4598 35.373 41.3058 34.4789 41.5414C33.9141 41.6844 33.3305 41.7301 32.7562 41.825C32.6273 42.1402 32.4937 42.4543 32.3543 42.766C32.9098 43.5664 33.7793 44.314 33.6984 45.3805C33.6762 46.4515 32.7551 47.123 32.0859 47.8308C31.3816 48.5152 30.7289 49.4644 29.6473 49.5008C28.5785 49.6133 27.8039 48.7707 26.9859 48.2351C26.6203 48.4086 26.2488 48.5703 25.8691 48.7121C25.7625 49.2406 25.7144 49.7785 25.6113 50.3082C25.4262 51.2176 24.6152 51.9699 23.6836 52.0414C22.9383 52.0988 22.1906 52.0484 21.4441 52.0648C20.8687 52.0719 20.2676 52.107 19.725 51.8808C19.0969 51.616 18.6258 51.0336 18.4676 50.375C18.3387 49.8301 18.2906 49.2711 18.2133 48.7191C17.8922 48.5844 17.5664 48.459 17.2406 48.3371C16.7473 48.7027 16.2879 49.1211 15.7477 49.4176C14.9086 49.8664 13.8176 49.6473 13.1519 48.9887C12.4945 48.3547 11.8488 47.7078 11.1937 47.0726C10.6031 46.4926 10.3336 45.5797 10.616 44.7875C10.8691 44.1031 11.3848 43.5664 11.7926 42.9746C11.6238 42.5914 11.4633 42.2047 11.3086 41.8156C10.7074 41.7242 10.0934 41.6879 9.50742 41.5203C8.72695 41.2906 8.1082 40.5828 8.00273 39.7742C7.92304 39.1824 7.98047 38.5848 7.96992 37.9918C7.97578 37.3613 7.91836 36.7262 8.02265 36.1015C8.18203 35.2871 8.8582 34.6109 9.66679 34.4316C10.2105 34.3191 10.7637 34.2547 11.3133 34.1785C11.4387 33.8609 11.5652 33.5433 11.6977 33.2281C11.1363 32.4301 10.2773 31.6812 10.3629 30.6125C10.3781 29.6398 11.168 28.9859 11.7902 28.3473C12.4055 27.7473 12.948 27.0453 13.7074 26.6199C14.2406 26.3105 14.9449 26.2801 15.4676 26.6281C16.0066 26.982 16.5164 27.3758 17.032 27.7613C17.4234 27.5961 17.8184 27.4379 18.2133 27.282C18.2848 26.7265 18.3457 26.1687 18.4676 25.6226ZM20.298 26.0492C20.1164 26.9387 20.0531 27.848 19.8891 28.741C19.166 28.9496 18.4383 29.1582 17.7715 29.5144C17.4727 29.6492 17.2102 29.8765 16.8844 29.9445C16.1402 29.4851 15.4828 28.8957 14.7469 28.4246C14.5687 28.2828 14.3602 28.4094 14.2336 28.5488C13.6453 29.1371 13.0652 29.7336 12.484 30.3289C12.3891 30.4508 12.2379 30.5562 12.2332 30.7262C12.2707 30.8867 12.3797 31.0168 12.4723 31.1492C12.9598 31.782 13.4543 32.409 13.9172 33.0605C13.3875 33.9254 13.0266 34.8793 12.7711 35.8578C11.9168 36.0078 11.0531 36.0969 10.1988 36.241C10.0172 36.2504 9.8332 36.3746 9.85312 36.5773C9.82851 37.441 9.86836 38.307 9.8414 39.1719C9.84961 39.3652 9.81445 39.6793 10.0723 39.7262C10.9617 39.9148 11.8758 39.9664 12.7687 40.1457C13.043 41.1945 13.4578 42.2 14.0156 43.1293C13.534 43.7773 13.0641 44.4348 12.5812 45.0805C12.4676 45.2551 12.259 45.5 12.4805 45.6781C13.0547 46.3121 13.7004 46.8805 14.3004 47.4922C14.4586 47.6246 14.6355 47.8672 14.8711 47.7547C15.6562 47.2812 16.2984 46.5805 17.1094 46.1539C17.9941 46.6226 18.9164 47.014 19.8879 47.2648C20.0461 48.1191 20.1199 48.9863 20.2734 49.8406C20.2828 50.0187 20.4141 50.1992 20.6121 50.1793C21.4734 50.1933 22.3371 50.1734 23.1996 50.1898C23.4023 50.1875 23.7223 50.2074 23.7644 49.9402C23.9379 49.0496 24.0152 48.1414 24.1746 47.2473C25.0769 47.034 25.9559 46.707 26.7539 46.2324C26.8898 46.1656 27.0187 46.0648 27.1758 46.0566C27.8473 46.4832 28.4625 46.9941 29.1117 47.4523C29.243 47.5273 29.3695 47.6574 29.5359 47.6316C29.8113 47.532 29.9894 47.2836 30.1945 47.0879C30.7043 46.5406 31.2598 46.0367 31.7484 45.4719C31.9348 45.2937 31.7344 45.0699 31.6324 44.9117C31.1367 44.2531 30.6164 43.6133 30.143 42.9394C30.5953 42.1683 30.975 41.3492 31.1883 40.4785C31.2398 40.3531 31.2351 40.1363 31.4156 40.1269C32.2641 39.9605 33.1336 39.9137 33.9797 39.7297C34.132 39.7133 34.2187 39.5539 34.2094 39.4133C34.2246 38.5121 34.2117 37.6121 34.2164 36.7109C34.2293 36.5363 34.1859 36.2973 33.9762 36.2691C33.0937 36.0816 32.1867 36.0371 31.3066 35.8426C31.1988 35.6527 31.1707 35.4301 31.1051 35.2262C30.8766 34.3906 30.4664 33.6242 30.0469 32.873C30.5238 32.2215 31.0008 31.5699 31.4801 30.9207C31.6008 30.7496 31.793 30.5 31.5797 30.3148C30.934 29.6433 30.2613 28.993 29.5852 28.3508C29.2875 28.0203 28.9348 28.4199 28.6769 28.5957C28.0969 29.0023 27.5871 29.5285 26.9531 29.8449C26.4855 29.6422 26.0519 29.3644 25.5715 29.1898C25.1273 28.9871 24.6398 28.9074 24.1898 28.7269C23.9777 27.8457 23.9543 26.9293 23.7574 26.0457C23.7129 25.7844 23.3977 25.816 23.2008 25.8101C22.3394 25.8277 21.4758 25.8043 20.6144 25.8219C20.4738 25.8125 20.3168 25.8992 20.298 26.0492Z" stroke="#0D365C" stroke-width="0.4" mask="url(#path-4-outside-1_187_57)"/>
<path d="M39.0197 30.3919C38.8642 30.3894 38.7134 30.4108 38.5663 30.4561L38.5662 30.4561L39.0188 30.4919M39.0197 30.3919C39.0199 30.3919 39.0202 30.3919 39.0204 30.3919L39.0188 30.4919M39.0197 30.3919C39.0195 30.3919 39.0193 30.3919 39.0191 30.3919L39.0188 30.4919M39.0197 30.3919C41.124 30.3993 43.2278 30.3982 45.3321 30.397C46.8623 30.3961 48.3928 30.3953 49.9239 30.3977M39.0188 30.4919C41.1233 30.4993 43.2278 30.4982 45.3326 30.497C46.8634 30.4961 48.3943 30.4953 49.9254 30.4977M49.9239 30.3977C49.9234 30.3978 49.9228 30.3978 49.9223 30.3978L49.9254 30.4977M49.9239 30.3977C49.9245 30.3977 49.925 30.3977 49.9256 30.3977L49.9254 30.4977M49.9239 30.3977L49.9254 30.4977M50.9506 30.7705C50.9496 30.7694 50.9486 30.7683 50.9476 30.7671L50.8723 30.8329L50.9533 30.7742C50.9524 30.773 50.9515 30.7718 50.9506 30.7705ZM50.8794 32.1814C50.8804 32.1803 50.8814 32.1791 50.8825 32.1779L50.8078 32.1114L50.876 32.1845C50.8772 32.1835 50.8783 32.1824 50.8794 32.1814ZM39.6098 32.4774C39.61 32.4774 39.6102 32.4774 39.6104 32.4774L39.6094 32.3774L39.6093 32.4774C39.6095 32.4774 39.6097 32.4774 39.6098 32.4774ZM38.113 32.1038C38.1138 32.1047 38.1146 32.1056 38.1155 32.1064L38.1891 32.0388L38.1108 32.101C38.1116 32.102 38.1123 32.1029 38.113 32.1038Z" fill="#0D365C" stroke="#0D365C" stroke-width="0.2"/>
<path d="M21.6191 34.177L21.6191 34.177L21.6207 34.1768C23.5109 33.9396 25.4338 35.3185 25.7825 37.1943L25.7824 37.1944L25.7837 37.1996C26.2351 39.0658 25.0214 41.1443 23.1715 41.6618L23.1715 41.6616L23.166 41.6635C21.4386 42.256 19.3758 41.3597 18.599 39.7138L18.5991 39.7138L18.5968 39.7094C17.7845 38.1885 18.2233 36.1576 19.5483 35.0665L19.5485 35.0664C20.1355 34.5812 20.8627 34.2603 21.6191 34.177ZM26.1509 33.7516C24.9123 32.5195 23.1 31.916 21.3707 32.1173C20.1382 32.2545 18.9514 32.7906 18.0369 33.6287C16.8532 34.7029 16.1369 36.2744 16.1141 37.8747C16.0702 39.4391 16.691 41.0095 17.7877 42.1243C18.7714 43.1472 20.1394 43.7906 21.5533 43.8992C23.2552 44.0433 25.0139 43.411 26.2152 42.1909C27.3243 41.1006 27.9543 39.5493 27.9473 37.9988C27.9578 36.4184 27.3004 34.8419 26.1509 33.7516Z" fill="#0D365C" stroke="#0D365C" stroke-width="0.2"/>
<path d="M40.4548 36.0782L40.4547 36.0775L40.4434 36.081C40.1438 36.1741 39.9232 36.4122 39.8163 36.6884C39.7098 36.9634 39.7121 37.2862 39.8703 37.5561C40.0598 37.9474 40.4984 38.1215 40.8953 38.1C45.8196 38.1023 50.7439 38.1035 55.6682 38.1C56.11 38.1351 56.5682 37.8968 56.737 37.4626C56.8761 37.1629 56.8328 36.8211 56.6791 36.551C56.5248 36.2798 56.2519 36.0682 55.9181 36.0417L55.918 36.0417C55.4571 36.0052 54.9918 36.012 54.532 36.0188C54.3221 36.0218 54.1134 36.0249 53.9068 36.0238L53.9064 36.0238C51.2245 36.0205 48.5427 36.0212 45.8609 36.022C44.7118 36.0223 43.5627 36.0226 42.4137 36.0226L42.4113 36.0226C42.2043 36.0275 41.9985 36.0226 41.7899 36.0176C41.6749 36.0148 41.5591 36.0121 41.4417 36.0109C41.115 36.0077 40.7837 36.0173 40.4548 36.0782Z" fill="#0D365C" stroke="#0D365C" stroke-width="0.2"/>
<path d="M38.5713 41.7053L38.5715 41.706C38.8246 41.6523 39.0802 41.6405 39.3312 41.6398C39.4297 41.6395 39.5259 41.6408 39.6211 41.6422C39.773 41.6443 39.9223 41.6464 40.0739 41.6417L40.0773 41.6416L40.0773 41.6417C42.4585 41.65 44.8403 41.6483 47.2224 41.6466C48.2033 41.6459 49.1842 41.6452 50.1653 41.6452C50.1654 41.6452 50.1655 41.6452 50.1656 41.6452V41.7452C50.6238 41.7417 51.027 42.1214 51.0961 42.5667L38.5713 41.7053ZM38.5713 41.7053L38.5604 41.709C38.3021 41.7957 38.0923 41.9952 37.9719 42.2336C37.8521 42.4711 37.8169 42.7559 37.92 43.0169C38.0638 43.4867 38.5605 43.7609 39.022 43.7342C40.7965 43.7242 42.5752 43.7262 44.3544 43.7281C46.2926 43.7303 48.2313 43.7325 50.1655 43.719L38.5713 41.7053Z" fill="#0D365C" stroke="#0D365C" stroke-width="0.2"/>
<path d="M17.0099 62.3308L17.0098 62.3305L17.0028 62.3328C16.6787 62.4409 16.4229 62.7212 16.3391 63.0503C16.2456 63.365 16.3341 63.6935 16.5208 63.9384C16.7077 64.1834 17.0009 64.3552 17.3298 64.3453C19.5843 64.3575 21.8396 64.3547 24.0946 64.3519C24.6584 64.3511 25.2222 64.3504 25.786 64.35L25.7874 64.35C25.9087 64.3481 26.0278 64.3516 26.1495 64.3551C26.2212 64.3572 26.2938 64.3593 26.3682 64.3604C26.5651 64.3632 26.7667 64.3583 26.9682 64.3227L26.9682 64.3227L26.9722 64.3219C27.5181 64.202 27.8864 63.592 27.7235 63.0517C27.601 62.5526 27.0968 62.2288 26.5994 62.275C25.2241 62.2693 23.8527 62.2708 22.4818 62.2722C21.0042 62.2737 19.5271 62.2752 18.0462 62.2679L18.0447 62.2679C17.976 62.2687 17.9056 62.268 17.8339 62.2673C17.5662 62.2648 17.2817 62.2621 17.0099 62.3308Z" fill="#0D365C" stroke="#0D365C" stroke-width="0.2"/>
</g>
<defs>
<clipPath id="clip0_187_57">
<rect width="60" height="60" fill="white" transform="translate(0 8)"/>
</clipPath>
</defs>
</svg>
