<svg width="75" height="67" viewBox="0 0 75 67" fill="none" xmlns="http://www.w3.org/2000/svg">
<rect x="17" width="58" height="55" fill="#62D2E1" fill-opacity="0.5"/>
<path d="M10 39.5V62H50V39.5" stroke="#0D365C" stroke-width="3" stroke-miterlimit="10" stroke-linecap="square"/>
<path d="M10 12L2.50002 24.5C2.49623 26.1859 3.06212 27.8236 4.10587 29.1476C5.14962 30.4716 6.61004 31.4041 8.25024 31.794C9.89047 32.1837 11.6143 32.0083 13.1421 31.2955C14.67 30.5828 15.9123 29.3748 16.6675 27.8675C17.2837 29.1087 18.2342 30.1533 19.412 30.8835C20.5897 31.6137 21.948 32.0008 23.3338 32.0008C24.7195 32.0008 26.0777 31.6137 27.2555 30.8835C28.4332 30.1533 29.3837 29.1087 30 27.8675C30.6162 29.1087 31.5667 30.1533 32.7445 30.8835C33.9222 31.6137 35.2805 32.0008 36.6662 32.0008C38.052 32.0008 39.4102 31.6137 40.588 30.8835C41.7657 30.1533 42.7162 29.1087 43.3325 27.8675C44.0877 29.3748 45.33 30.5828 46.858 31.2955C48.3857 32.0083 50.1095 32.1837 51.7497 31.794C53.39 31.4041 54.8505 30.4716 55.8942 29.1476C56.938 27.8236 57.5037 26.1859 57.5 24.5L50 12H10Z" stroke="#0D365C" stroke-width="3" stroke-miterlimit="10" stroke-linecap="square"/>
<path d="M25 62V47H35V62" stroke="#0D365C" stroke-width="3" stroke-miterlimit="10"/>
</svg>
