<svg width="72" height="69" viewBox="0 0 72 69" fill="none" xmlns="http://www.w3.org/2000/svg">
<g clip-path="url(#clip0_13_2304)">
<path d="M61.2 0H10.8C4.83532 0 0 4.63385 0 10.35V58.65C0 64.3661 4.83532 69 10.8 69H61.2C67.1647 69 72 64.3661 72 58.65V10.35C72 4.63385 67.1647 0 61.2 0Z" fill="#F7DF1E"/>
<path d="M45.5625 49.8633C46.9688 52.1543 48.9375 53.7715 52.1719 53.7715C54.9844 53.7715 56.8125 52.4238 56.8125 50.5371C56.8125 48.3809 54.9844 47.5723 51.8906 46.2246L50.2031 45.5508C45.2812 43.5293 42.0469 41.1035 42.0469 35.8477C42.0469 30.9961 45.8438 27.2227 51.8906 27.2227C56.25 27.2227 59.3438 28.7051 61.4531 32.4785L56.25 35.7129C55.125 33.6914 53.8594 32.8828 51.8906 32.8828C49.9219 32.8828 48.6562 34.0957 48.6562 35.7129C48.6562 37.5996 49.9219 38.4082 52.875 39.6211L54.5625 40.2949C60.3281 42.7207 63.5625 45.0117 63.5625 50.5371C63.5625 56.332 58.7812 59.5664 52.3125 59.5664C45.9844 59.5664 41.9062 56.7363 39.9375 52.9629L45.5625 49.8633ZM21.6562 50.4023C22.7812 52.1543 23.625 53.7715 26.0156 53.7715C28.2656 53.7715 29.6719 52.9629 29.6719 49.7285V27.3574H36.4219V49.459C36.4219 56.1973 32.3438 59.1621 26.2969 59.1621C20.8125 59.1621 17.7188 56.4668 16.1719 53.2324L21.6562 50.4023Z" fill="black"/>
</g>
<defs>
<clipPath id="clip0_13_2304">
<rect width="72" height="69" fill="white"/>
</clipPath>
</defs>
</svg>
