<svg width="100" height="100" viewBox="0 0 100 100" fill="none" xmlns="http://www.w3.org/2000/svg">
<path d="M44.7281 69.4093C46.4469 69.4875 48.2031 69.5437 49.9813 69.5437C51.7781 69.5437 53.5531 69.5062 55.2938 69.4093C53.5531 71.6593 51.8344 73.6499 50.0156 75.5468L50.0406 75.5218C48.2313 73.6468 46.4938 71.6531 44.8563 69.5781L44.7281 69.4093ZM26.9219 66.9093C30.3062 67.7687 34.4344 68.4999 38.6469 68.9499L39.0563 68.9843C41.6344 72.5249 44.2406 75.6406 47.0375 78.5718L47.0031 78.5343C42.9062 83.1062 37.3781 86.3187 31.125 87.4718L30.9531 87.4968C30.9406 87.4968 30.9281 87.4968 30.9156 87.4968C30.1406 87.4968 29.4094 87.3062 28.7688 86.9687L28.7937 86.9812C26.1937 85.4968 25.0656 79.8187 25.9438 72.5218C26.1531 70.7249 26.4969 68.8343 26.9188 66.9062L26.9219 66.9093ZM73.1188 66.8687C73.4875 68.35 73.8344 70.2374 74.0813 72.1562L74.1094 72.425C75.0063 79.7187 73.9 85.3906 71.3219 86.9062C70.7469 87.225 70.0594 87.4124 69.3281 87.4124C69.2562 87.4124 69.1844 87.4093 69.1125 87.4062H69.1219C62.7062 86.2343 57.1812 83.0437 53.0938 78.5281L53.0719 78.5031C55.8187 75.6187 58.4062 72.5093 60.7781 69.2375L60.9594 68.975C65.5719 68.4937 69.7063 67.7499 73.7344 66.7343L73.1188 66.8656V66.8687ZM30.575 55.2062C31.3563 56.7375 32.175 58.2625 33.075 59.7937C33.9729 61.3166 34.8906 62.8041 35.8281 64.2562C33.1156 63.8593 30.4969 63.3593 27.9937 62.75C28.6969 60.2906 29.5781 57.7437 30.5719 55.2L30.575 55.2062ZM69.4125 55.1281C70.4469 57.6937 71.325 60.2531 72.0531 62.7343C69.5531 63.3468 66.9125 63.8656 64.1813 64.2562C65.1188 62.7906 66.0563 61.2812 66.9344 59.7343C67.8125 58.2125 68.6344 56.6562 69.4188 55.125L69.4125 55.1281ZM23.8094 38.4125C25.1719 43.0312 26.6344 46.8937 28.3375 50.6187L28.1031 50.05C26.6469 53.1906 25.2063 57.0312 24.025 60.9843L23.8625 61.625C21.6562 60.9468 19.8813 60.2812 18.1531 59.5343L18.5125 59.6718C11.75 56.7937 7.375 53.0093 7.375 50.0093C7.375 47.0093 11.75 43.2062 18.5125 40.3406C20.1531 39.6375 21.9531 39.0031 23.8094 38.4125ZM76.1188 38.3968C78.0094 38.9812 79.8063 39.6343 81.4875 40.3406C88.25 43.2312 92.625 47.0093 92.625 50.0093C92.6062 53.0093 88.2313 56.8031 81.4688 59.6749C79.8281 60.3781 78.0313 61.0093 76.1781 61.6C74.8031 56.9656 73.3406 53.1062 71.6438 49.375L71.8813 49.9625C73.3313 46.825 74.775 42.9843 75.9531 39.0312L76.1188 38.3875V38.3968ZM64.1563 35.7625C66.8719 36.1656 69.4875 36.6593 71.9906 37.275C71.2875 39.7437 70.4094 42.2812 69.4125 44.825C68.6313 43.3031 67.8125 41.7687 66.9125 40.2406C66.0344 38.7093 65.0969 37.2187 64.1594 35.7656L64.1563 35.7625ZM35.8063 35.7625C34.8687 37.2343 33.9312 38.7406 33.0562 40.2937C32.1781 41.8156 31.3563 43.3468 30.575 44.8781C29.5406 42.3156 28.6625 39.7625 27.9344 37.275C30.4344 36.6906 33.0687 36.1687 35.8031 35.7687L35.8063 35.7625ZM50 34.7687C52.8906 34.7687 55.7688 34.9 58.6 35.1312C60.1854 37.4041 61.725 39.825 63.2188 42.3937C64.6708 44.8937 65.9958 47.427 67.1938 49.9937C65.9906 52.5531 64.6719 55.1093 63.2375 57.6093C61.7531 60.1875 60.2188 62.6406 58.6281 64.9124C55.7844 65.1593 52.9031 65.2937 49.9969 65.2937C47.1062 65.2937 44.2281 65.1562 41.3969 64.9312C39.8125 62.6593 38.2656 60.2281 36.7781 57.6687C35.326 55.1687 34.001 52.6354 32.8031 50.0687C33.9875 47.5031 35.325 44.9406 36.7594 42.4375C38.2437 39.8593 39.7781 37.4156 41.3687 35.1437C44.2125 34.8937 47.0938 34.7624 50 34.7624V34.7687ZM49.9406 24.5156C51.7531 26.3906 53.4906 28.3812 55.125 30.4562L55.25 30.6218C53.5313 30.5437 51.775 30.4906 49.9969 30.4906C48.2 30.4906 46.425 30.5281 44.6844 30.6218C46.4219 28.3718 48.1406 26.3812 49.9625 24.4843L49.9375 24.5093L49.9406 24.5156ZM30.875 12.6031C37.2906 13.7781 42.8125 16.9687 46.9031 21.4812L46.925 21.5062C44.1781 24.3937 41.5906 27.5031 39.2188 30.7812L39.0375 31.0437C34.4281 31.5218 30.2938 32.2593 26.2687 33.275L26.8813 33.1437C26.4438 31.2312 26.1187 29.3781 25.8906 27.6C24.9937 20.3062 26.1 14.6343 28.6781 13.125C29.3219 12.8218 30.075 12.6343 30.8687 12.6093H30.8781L30.875 12.6031ZM69.0312 12.525V12.55C69.0719 12.55 69.1188 12.5468 69.1688 12.5468C69.9156 12.5468 70.6188 12.7312 71.2375 13.0562L71.2125 13.0437C73.8125 14.5343 74.9406 20.2093 74.0625 27.5093C73.8531 29.3062 73.5094 31.2 73.0875 33.1312C69.6969 32.2625 65.5688 31.5281 61.3563 31.0812L60.9563 31.0468C58.375 27.5031 55.7687 24.3875 52.9719 21.4531L53.0094 21.4906C57.1062 16.9281 62.625 13.7156 68.8656 12.5562L69.0406 12.5281L69.0312 12.525ZM69.05 8.2687C61.4188 9.42808 54.8125 13.1343 49.9875 18.4812L49.9625 18.5093C45.1031 13.1656 38.4969 9.48433 31.0531 8.3687L30.8781 8.34683C30.8375 8.34683 30.7875 8.34683 30.7375 8.34683C29.2031 8.34683 27.7625 8.74995 26.5156 9.4562L26.5594 9.43433C21.1906 12.5312 19.9875 22.1812 22.7594 34.2906C10.8719 37.9625 3.14062 43.8312 3.14062 50.0156C3.14062 56.2249 10.9125 62.1093 22.8344 65.7531C20.0844 77.9093 21.3125 87.575 26.6937 90.6687C27.875 91.3468 29.2938 91.7437 30.8031 91.7437C30.8719 91.7437 30.9406 91.7437 31.0062 91.7406H30.9969C38.6281 90.5812 45.2344 86.8718 50.0594 81.5218L50.0844 81.4937C54.9438 86.8406 61.55 90.5218 68.9938 91.6375L69.1688 91.6593C69.2156 91.6593 69.275 91.6593 69.3313 91.6593C70.8563 91.6593 72.2906 91.2593 73.5313 90.5624L73.4875 90.5843C78.8531 87.4906 80.0594 77.8406 77.2875 65.7281C89.1313 62.0875 96.8625 56.2062 96.8625 50.0125C96.8625 43.8031 89.0906 37.9187 77.1688 34.2656C79.9188 22.1218 78.6906 12.4468 73.3094 9.34995C72.1156 8.66558 70.6844 8.26245 69.1594 8.26245C69.1188 8.26245 69.0781 8.26245 69.0375 8.26245H69.0438L69.05 8.2687ZM58.7094 50.0156C58.7094 54.8374 54.8 58.7468 49.9781 58.7468C45.1562 58.7468 41.2469 54.8374 41.2469 50.0156C41.2469 45.1937 45.1562 41.2843 49.9781 41.2843C52.3906 41.2843 54.5719 42.2625 56.1531 43.8406C57.7344 45.4218 58.7094 47.6031 58.7094 50.0156Z" fill="url(#paint0_linear_13_2315)"/>
<defs>
<linearGradient id="paint0_linear_13_2315" x1="12.245" y1="-100.263" x2="136.952" y2="-60.1056" gradientUnits="userSpaceOnUse">
<stop stop-color="#4E64CF"/>
<stop offset="1" stop-color="#60B8DE"/>
</linearGradient>
</defs>
</svg>
