<svg width="94" height="84" viewBox="0 0 94 84" fill="none" xmlns="http://www.w3.org/2000/svg">
<path d="M41.7281 61.4093C43.4469 61.4875 45.2031 61.5437 46.9813 61.5437C48.7781 61.5437 50.5531 61.5062 52.2938 61.4093C50.5531 63.6593 48.8344 65.6499 47.0156 67.5468L47.0406 67.5218C45.2313 65.6468 43.4938 63.6531 41.8563 61.5781L41.7281 61.4093ZM23.9219 58.9093C27.3062 59.7687 31.4344 60.4999 35.6469 60.9499L36.0563 60.9843C38.6344 64.5249 41.2406 67.6406 44.0375 70.5718L44.0031 70.5343C39.9062 75.1062 34.3781 78.3187 28.125 79.4718L27.9531 79.4968C27.9406 79.4968 27.9281 79.4968 27.9156 79.4968C27.1406 79.4968 26.4094 79.3062 25.7688 78.9687L25.7937 78.9812C23.1937 77.4968 22.0656 71.8187 22.9438 64.5218C23.1531 62.7249 23.4969 60.8343 23.9188 58.9062L23.9219 58.9093ZM70.1188 58.8687C70.4875 60.35 70.8344 62.2374 71.0813 64.1562L71.1094 64.425C72.0063 71.7187 70.9 77.3906 68.3219 78.9062C67.7469 79.225 67.0594 79.4124 66.3281 79.4124C66.2562 79.4124 66.1844 79.4093 66.1125 79.4062H66.1219C59.7062 78.2343 54.1812 75.0437 50.0938 70.5281L50.0719 70.5031C52.8187 67.6187 55.4062 64.5093 57.7781 61.2375L57.9594 60.975C62.5719 60.4937 66.7063 59.7499 70.7344 58.7343L70.1188 58.8656V58.8687ZM27.575 47.2062C28.3563 48.7375 29.175 50.2625 30.075 51.7937C30.9729 53.3166 31.8906 54.8041 32.8281 56.2562C30.1156 55.8593 27.4969 55.3593 24.9937 54.75C25.6969 52.2906 26.5781 49.7437 27.5719 47.2L27.575 47.2062ZM66.4125 47.1281C67.4469 49.6937 68.325 52.2531 69.0531 54.7343C66.5531 55.3468 63.9125 55.8656 61.1813 56.2562C62.1188 54.7906 63.0563 53.2812 63.9344 51.7343C64.8125 50.2125 65.6344 48.6562 66.4188 47.125L66.4125 47.1281ZM20.8094 30.4125C22.1719 35.0312 23.6344 38.8937 25.3375 42.6187L25.1031 42.05C23.6469 45.1906 22.2063 49.0312 21.025 52.9843L20.8625 53.625C18.6562 52.9468 16.8813 52.2812 15.1531 51.5343L15.5125 51.6718C8.75 48.7937 4.375 45.0093 4.375 42.0093C4.375 39.0093 8.75 35.2062 15.5125 32.3406C17.1531 31.6375 18.9531 31.0031 20.8094 30.4125ZM73.1188 30.3968C75.0094 30.9812 76.8063 31.6343 78.4875 32.3406C85.25 35.2312 89.625 39.0093 89.625 42.0093C89.6062 45.0093 85.2313 48.8031 78.4688 51.6749C76.8281 52.3781 75.0313 53.0093 73.1781 53.6C71.8031 48.9656 70.3406 45.1062 68.6438 41.375L68.8813 41.9625C70.3313 38.825 71.775 34.9843 72.9531 31.0312L73.1188 30.3875V30.3968ZM61.1563 27.7625C63.8719 28.1656 66.4875 28.6593 68.9906 29.275C68.2875 31.7437 67.4094 34.2812 66.4125 36.825C65.6313 35.3031 64.8125 33.7687 63.9125 32.2406C63.0344 30.7093 62.0969 29.2187 61.1594 27.7656L61.1563 27.7625ZM32.8063 27.7625C31.8687 29.2343 30.9312 30.7406 30.0562 32.2937C29.1781 33.8156 28.3563 35.3468 27.575 36.8781C26.5406 34.3156 25.6625 31.7625 24.9344 29.275C27.4344 28.6906 30.0687 28.1687 32.8031 27.7687L32.8063 27.7625ZM47 26.7687C49.8906 26.7687 52.7688 26.9 55.6 27.1312C57.1854 29.4041 58.725 31.825 60.2188 34.3937C61.6708 36.8937 62.9958 39.427 64.1938 41.9937C62.9906 44.5531 61.6719 47.1093 60.2375 49.6093C58.7531 52.1875 57.2188 54.6406 55.6281 56.9124C52.7844 57.1593 49.9031 57.2937 46.9969 57.2937C44.1062 57.2937 41.2281 57.1562 38.3969 56.9312C36.8125 54.6593 35.2656 52.2281 33.7781 49.6687C32.326 47.1687 31.001 44.6354 29.8031 42.0687C30.9875 39.5031 32.325 36.9406 33.7594 34.4375C35.2437 31.8593 36.7781 29.4156 38.3687 27.1437C41.2125 26.8937 44.0938 26.7624 47 26.7624V26.7687ZM46.9406 16.5156C48.7531 18.3906 50.4906 20.3812 52.125 22.4562L52.25 22.6218C50.5313 22.5437 48.775 22.4906 46.9969 22.4906C45.2 22.4906 43.425 22.5281 41.6844 22.6218C43.4219 20.3718 45.1406 18.3812 46.9625 16.4843L46.9375 16.5093L46.9406 16.5156ZM27.875 4.60308C34.2906 5.77808 39.8125 8.9687 43.9031 13.4812L43.925 13.5062C41.1781 16.3937 38.5906 19.5031 36.2188 22.7812L36.0375 23.0437C31.4281 23.5218 27.2938 24.2593 23.2687 25.275L23.8813 25.1437C23.4438 23.2312 23.1187 21.3781 22.8906 19.6C21.9937 12.3062 23.1 6.63433 25.6781 5.12495C26.3219 4.82183 27.075 4.63433 27.8687 4.60933H27.8781L27.875 4.60308ZM66.0312 4.52495V4.54995C66.0719 4.54995 66.1188 4.54683 66.1688 4.54683C66.9156 4.54683 67.6188 4.7312 68.2375 5.0562L68.2125 5.0437C70.8125 6.53433 71.9406 12.2093 71.0625 19.5093C70.8531 21.3062 70.5094 23.2 70.0875 25.1312C66.6969 24.2625 62.5688 23.5281 58.3563 23.0812L57.9563 23.0468C55.375 19.5031 52.7687 16.3875 49.9719 13.4531L50.0094 13.4906C54.1062 8.92808 59.625 5.71558 65.8656 4.5562L66.0406 4.52808L66.0312 4.52495ZM66.05 0.268701C58.4188 1.42808 51.8125 5.13433 46.9875 10.4812L46.9625 10.5093C42.1031 5.16558 35.4969 1.48433 28.0531 0.368701L27.8781 0.346826C27.8375 0.346826 27.7875 0.346826 27.7375 0.346826C26.2031 0.346826 24.7625 0.749951 23.5156 1.4562L23.5594 1.43433C18.1906 4.5312 16.9875 14.1812 19.7594 26.2906C7.87187 29.9625 0.140625 35.8312 0.140625 42.0156C0.140625 48.2249 7.9125 54.1093 19.8344 57.7531C17.0844 69.9093 18.3125 79.575 23.6937 82.6687C24.875 83.3468 26.2938 83.7437 27.8031 83.7437C27.8719 83.7437 27.9406 83.7437 28.0062 83.7406H27.9969C35.6281 82.5812 42.2344 78.8718 47.0594 73.5218L47.0844 73.4937C51.9438 78.8406 58.55 82.5218 65.9938 83.6375L66.1688 83.6593C66.2156 83.6593 66.275 83.6593 66.3313 83.6593C67.8563 83.6593 69.2906 83.2593 70.5313 82.5624L70.4875 82.5843C75.8531 79.4906 77.0594 69.8406 74.2875 57.7281C86.1313 54.0875 93.8625 48.2062 93.8625 42.0125C93.8625 35.8031 86.0906 29.9187 74.1688 26.2656C76.9188 14.1218 75.6906 4.44683 70.3094 1.34995C69.1156 0.665576 67.6844 0.262451 66.1594 0.262451C66.1188 0.262451 66.0781 0.262451 66.0375 0.262451H66.0438L66.05 0.268701ZM55.7094 42.0156C55.7094 46.8374 51.8 50.7468 46.9781 50.7468C42.1562 50.7468 38.2469 46.8374 38.2469 42.0156C38.2469 37.1937 42.1562 33.2843 46.9781 33.2843C49.3906 33.2843 51.5719 34.2625 53.1531 35.8406C54.7344 37.4218 55.7094 39.6031 55.7094 42.0156Z" fill="url(#paint0_linear_13_2311)"/>
<defs>
<linearGradient id="paint0_linear_13_2311" x1="9.24504" y1="-108.263" x2="133.952" y2="-68.1056" gradientUnits="userSpaceOnUse">
<stop stop-color="#4E64CF"/>
<stop offset="1" stop-color="#60B8DE"/>
</linearGradient>
</defs>
</svg>
