<svg width="70" height="72" viewBox="0 0 70 72" fill="none" xmlns="http://www.w3.org/2000/svg">
<rect x="12" width="58" height="55" rx="27.5" fill="#E17F62" fill-opacity="0.5"/>
<path d="M41.5359 14.1445C41.8793 13.7895 42.4992 13.7918 42.8414 14.1469C44.6695 15.9574 46.4789 17.7867 48.3047 19.5996C48.5039 19.7977 48.716 20.0215 48.7406 20.318C48.8168 20.8078 48.4336 21.3164 47.9356 21.3609C47.2711 21.3973 46.6031 21.3633 45.9375 21.375C45.9375 21.9996 45.9375 22.6254 45.9375 23.25C47.2277 23.2547 48.5191 23.2418 49.8094 23.2559C51.2473 23.2805 52.6465 24.0223 53.4809 25.193C54.0832 26.0133 54.3879 27.0328 54.375 28.0477C54.375 34.2609 54.375 40.4742 54.375 46.6875C53.7492 46.6875 53.1246 46.6875 52.5 46.6875C52.5 40.6711 52.5 34.6547 52.5 28.6395C52.5023 28.0453 52.5328 27.4242 52.2856 26.8688C51.8895 25.8738 50.8816 25.1602 49.8094 25.132C48.5191 25.1145 47.2277 25.1297 45.9375 25.125C45.9363 30.75 45.9387 36.375 45.9375 42C45.3117 42 44.6871 42 44.0625 42C44.0613 35.0086 44.0648 28.0172 44.0613 21.0258C44.0684 20.6027 43.9922 20.0977 44.3355 19.7766C44.6461 19.4391 45.1371 19.5035 45.5496 19.4965C44.4258 18.3809 43.3102 17.2559 42.1875 16.1391C41.0672 17.257 39.9492 18.3785 38.8289 19.4965C39.1887 19.5117 39.5965 19.4414 39.9082 19.6688C40.2 19.8609 40.3313 20.2184 40.3125 20.5582C40.3125 28.0184 40.3125 35.4773 40.3125 42.9375C39.6867 42.9375 39.0621 42.9375 38.4375 42.9375C38.4375 36.9996 38.4375 31.0629 38.4375 25.125C27.8133 25.1262 17.1891 25.1227 6.56602 25.1262C5.48203 25.1121 4.43438 25.7918 3.99961 26.7832C3.81446 27.1793 3.74649 27.6188 3.74883 28.0523C3.75 29.2641 3.75117 30.4758 3.75 31.6875C3.12539 31.6875 2.49961 31.6875 1.875 31.6875C1.88203 30.3574 1.86094 29.0262 1.88555 27.6973C1.95352 25.691 3.46992 23.8582 5.41875 23.3941C6.09727 23.2137 6.80625 23.2535 7.50235 23.25C17.8137 23.25 28.125 23.25 38.4375 23.25C38.4375 22.6254 38.4375 21.9996 38.4375 21.375C37.7367 21.3551 37.0313 21.4148 36.334 21.3445C35.6496 21.2074 35.3813 20.2477 35.8992 19.7789C37.7766 17.898 39.6539 16.0172 41.5359 14.1445Z" fill="#0D365C"/>
<path d="M47.8137 13.8726C49.3699 13.8819 50.9144 14.5452 51.9574 15.7065C52.9055 16.7272 53.4269 18.1101 53.4398 19.4987C52.8164 19.5011 52.193 19.4999 51.5695 19.4999C51.5508 18.4897 51.1406 17.4866 50.4 16.7917C49.7156 16.1202 48.7652 15.7628 47.8125 15.7417C47.8125 15.1183 47.8113 14.4948 47.8137 13.8726Z" fill="#0D365C"/>
<path d="M6.5625 27C7.18711 27 7.81289 27 8.4375 27C8.4375 27.6246 8.4375 28.2504 8.4375 28.875C7.81289 28.875 7.18711 28.875 6.5625 28.875C6.5625 28.2504 6.5625 27.6246 6.5625 27Z" fill="#0D365C"/>
<path d="M10.3125 27C10.9371 27 11.5629 27 12.1875 27C12.1875 27.6246 12.1875 28.2504 12.1875 28.875C11.5617 28.875 10.9371 28.875 10.3125 28.875C10.3125 28.2492 10.3125 27.6246 10.3125 27Z" fill="#0D365C"/>
<path d="M14.0625 27C14.6871 27 15.3129 27 15.9375 27C15.9375 27.6246 15.9375 28.2504 15.9375 28.875C15.3129 28.875 14.6871 28.875 14.0625 28.875C14.0625 28.2504 14.0625 27.6246 14.0625 27Z" fill="#0D365C"/>
<path d="M29.0625 28.9875C29.0039 28.4554 29.4422 27.9281 29.9871 27.9433C31.8715 27.9339 33.757 27.9339 35.6402 27.9433C36.1828 27.9304 36.6164 28.4531 36.5625 28.9816C36.5625 34.2585 36.5625 39.5355 36.5625 44.8125C35.9367 44.8125 35.3121 44.8125 34.6875 44.8125C34.6875 39.8121 34.6875 34.8128 34.6875 29.8125C33.4371 29.8125 32.1879 29.8125 30.9375 29.8125C30.9363 36.9996 30.9387 44.1878 30.9375 51.375C22.8129 51.375 14.6871 51.375 6.5625 51.375C6.5625 50.7492 6.5625 50.1246 6.5625 49.5C7.81289 49.4988 9.06211 49.5 10.3125 49.5C10.3172 46.9957 10.3043 44.4902 10.3172 41.9871C10.3066 41.4925 10.7496 41.0531 11.243 41.0671C13.1227 41.0589 15.0023 41.0589 16.882 41.0671C17.3777 41.0542 17.8195 41.4972 17.8066 41.9929C17.8207 44.4949 17.8078 46.9968 17.8125 49.5C18.4371 49.5 19.0629 49.5 19.6875 49.5C19.691 44.8089 19.6805 40.1179 19.6922 35.4281C19.6793 34.9324 20.1234 34.4906 20.6191 34.5046C22.5 34.4964 24.382 34.4964 26.2629 34.5046C26.8078 34.4906 27.2437 35.0179 27.1875 35.5488C27.1875 40.1988 27.1875 44.8488 27.1875 49.5C27.8121 49.5 28.4367 49.5 29.0625 49.5C29.0625 42.6621 29.0625 35.8242 29.0625 28.9875ZM21.5625 36.375C21.5625 40.7496 21.5625 45.1253 21.5625 49.5C22.8129 49.5 24.0621 49.5 25.3125 49.5C25.3125 45.1253 25.3125 40.7496 25.3125 36.375C24.0621 36.375 22.8129 36.375 21.5625 36.375ZM12.1875 42.9375C12.1875 45.1253 12.1875 47.3121 12.1875 49.5C13.4379 49.5 14.6871 49.5 15.9375 49.5C15.9375 47.3121 15.9375 45.1253 15.9375 42.9375C14.6871 42.9375 13.4379 42.9375 12.1875 42.9375Z" fill="#0D365C"/>
<path d="M1.87499 33.5625C2.4996 33.5625 3.12539 33.5625 3.74999 33.5625C3.75117 40.125 3.74882 46.6875 3.74999 53.25C12.5004 53.2512 21.2496 53.2488 30 53.25C30 53.8746 30 54.4992 30 55.125C21.2496 55.125 12.5004 55.125 3.75117 55.125C3.75703 55.7941 3.68437 56.4973 3.9621 57.1277C4.37226 58.1637 5.4457 58.8855 6.56132 58.8727C14.6859 58.8785 22.8117 58.8727 30.9375 58.875C30.9375 59.4996 30.9375 60.1242 30.9375 60.75C28.6699 60.7512 26.4023 60.7488 24.1348 60.7512C23.3836 63.2496 22.6336 65.7492 21.8859 68.2488C26.0449 68.2512 30.2039 68.25 34.3641 68.2488C34.0207 67.0875 33.6609 65.9297 33.3246 64.766C33.9269 64.6031 34.5176 64.4016 35.1176 64.2328C35.5195 65.5711 35.9203 66.9105 36.3234 68.2488C37.0277 68.2512 37.732 68.2488 38.4375 68.25C38.4375 68.8746 38.4375 69.4992 38.4375 70.125C31.5621 70.125 24.6879 70.125 17.8125 70.125C17.8125 69.4992 17.8125 68.8746 17.8125 68.25C18.518 68.2488 19.2223 68.2512 19.9266 68.2488C20.6777 65.7504 21.4277 63.2508 22.1766 60.7512C16.9711 60.7477 11.7656 60.7535 6.56015 60.7477C5.38828 60.7465 4.2246 60.2918 3.37148 59.4891C2.42812 58.6195 1.87382 57.3492 1.87734 56.066C1.87265 48.5648 1.87617 41.0637 1.87499 33.5625Z" fill="#0D365C"/>
<path d="M39.927 44.3191C42.7149 43.4859 45.8227 43.793 48.3891 45.1676C50.952 46.5187 52.9524 48.8953 53.8289 51.6586C54.8227 54.6797 54.436 58.1039 52.8153 60.8379C54.3071 62.3332 55.8047 63.8238 57.2965 65.3191C57.9035 65.9297 58.2176 66.8226 58.0981 67.6793C57.9727 68.7187 57.2133 69.6515 56.2149 69.9738C55.2223 70.3254 54.061 70.0336 53.3215 69.2953C51.8239 67.8058 50.3344 66.3094 48.8403 64.8164C46.8141 66.0012 44.4188 66.5519 42.0797 66.3246C39.2977 66.0773 36.6293 64.7449 34.7649 62.6648C33.0434 60.7699 32.0004 58.2726 31.875 55.7144C31.7321 53.1527 32.4985 50.5512 34.0184 48.484C35.4621 46.4988 37.5703 45.0082 39.927 44.3191ZM41.891 45.8344C39.9188 46.0945 38.0379 47.0004 36.6117 48.3879C35.202 49.7414 34.2399 51.5496 33.9 53.4738C33.5649 55.323 33.8074 57.2707 34.5844 58.9805C35.4235 60.8555 36.9024 62.4328 38.7176 63.3949C40.5528 64.3781 42.7231 64.7226 44.7727 64.3512C46.5106 64.0441 48.1512 63.2273 49.4496 62.0355C50.9567 60.6609 51.9973 58.7848 52.35 56.775C52.6899 54.8976 52.4332 52.9183 51.6293 51.1887C50.7961 49.3781 49.3653 47.8488 47.6133 46.8984C45.8824 45.9492 43.8469 45.5707 41.891 45.8344ZM51.7125 62.3883C51.3024 62.8594 50.8594 63.3023 50.3883 63.7125C51.811 65.1316 53.2278 66.559 54.6539 67.9758C54.9785 68.325 55.568 68.3613 55.9278 68.0473C56.3532 67.7121 56.3719 67.0137 55.9723 66.6504C54.5567 65.2254 53.1317 63.8086 51.7125 62.3883Z" fill="#0D365C"/>
<path d="M42.0094 47.7104C43.6582 47.4596 45.3914 47.7737 46.834 48.6139C48.5754 49.6018 49.8949 51.3139 50.3859 53.2569C50.8195 54.9233 50.6496 56.7362 49.9183 58.2936C49.2445 59.7467 48.0902 60.9702 46.6781 61.726C45.1781 62.5381 43.3969 62.8124 41.7223 62.4889C39.9562 62.1584 38.325 61.1647 37.2223 59.7456C36.0949 58.317 35.5207 56.4655 35.6426 54.6502C35.7469 52.9311 36.4699 51.2577 37.6488 50.0026C38.7914 48.778 40.3523 47.9553 42.0094 47.7104ZM42.2332 49.5725C40.3992 49.8526 38.7527 51.1088 38.0016 52.8069C37.3242 54.2823 37.3359 56.0518 38.0367 57.5166C38.7281 59.012 40.1144 60.1604 41.7105 60.5659C43.275 60.9807 45.0141 60.669 46.3359 59.7338C47.693 58.7987 48.5976 57.2401 48.7242 55.5959C48.8883 53.8604 48.1711 52.078 46.8668 50.9272C45.6281 49.8116 43.8785 49.2983 42.2332 49.5725Z" fill="#0D365C"/>
<path d="M40.5328 52.4191C41.2195 51.7488 42.1687 51.3855 43.1238 51.3691C43.1262 51.9902 43.125 52.6125 43.125 53.2348C42.1172 53.2488 41.2488 54.1172 41.2348 55.125C40.6125 55.125 39.9902 55.1262 39.3691 55.1238C39.3844 54.1148 39.7945 53.1129 40.5328 52.4191Z" fill="#0D365C"/>
</svg>
