<svg width="76" height="74" viewBox="0 0 76 74" fill="none" xmlns="http://www.w3.org/2000/svg">
<path d="M21.375 31.6812C23.5917 23.0479 29.1333 18.7312 38 18.7312C51.3 18.7312 52.9625 28.4437 59.6125 30.0625C64.0458 31.1416 67.925 29.5229 71.25 25.2062C69.0333 33.8395 63.4917 38.1562 54.625 38.1562C41.325 38.1562 39.6625 28.4437 33.0125 26.825C28.5792 25.7458 24.7 27.3645 21.375 31.6812ZM4.75 51.1062C6.96667 42.4729 12.5083 38.1562 21.375 38.1562C34.675 38.1562 36.3375 47.8687 42.9875 49.4874C47.4208 50.5666 51.3 48.9479 54.625 44.6312C52.4083 53.2645 46.8667 57.5812 38 57.5812C24.7 57.5812 23.0375 47.8687 16.3875 46.25C11.9542 45.1708 8.075 46.7895 4.75 51.1062Z" fill="#44A8B3"/>
</svg>
