<svg width="69" height="66" viewBox="0 0 69 66" fill="none" xmlns="http://www.w3.org/2000/svg">
<rect x="11" width="58" height="55" rx="9" fill="#BF65AB" fill-opacity="0.5"/>
<path d="M2.1624 9.07973C2.41318 9.02231 2.67217 9.00708 2.92881 9.00122C19.7253 9.00239 36.5218 9.00239 53.3194 9.00122C54.1198 8.97778 54.9272 9.29302 55.4757 9.88247C55.9972 10.425 56.2702 11.1809 56.2503 11.9309C56.2479 28.7661 56.2538 45.6024 56.248 62.4376C56.2819 63.9387 54.939 65.2852 53.4366 65.2501C36.564 65.2547 19.6901 65.2536 2.81631 65.2501C1.31748 65.2852 -0.0325195 63.9458 0.00263672 62.4434C-0.000878906 45.5661 -0.000878906 28.6887 0.00263672 11.8114C-0.018457 10.5446 0.92959 9.35747 2.1624 9.07973ZM2.21396 11.0942C1.96084 11.2922 1.86357 11.6204 1.87529 11.9309C1.87412 13.4543 1.87646 14.979 1.87529 16.5024C19.3749 16.5024 36.8757 16.5024 54.3753 16.5024C54.3765 15.0176 54.3729 13.534 54.3776 12.0493C54.3847 11.7293 54.346 11.3743 54.0929 11.1469C53.7378 10.7813 53.187 10.8938 52.73 10.8762C36.3272 10.8786 19.9233 10.8786 3.52061 10.8762C3.08467 10.8961 2.57725 10.7872 2.21396 11.0942ZM1.87529 18.3774C1.87529 33.0282 1.87412 47.679 1.87646 62.3297C1.83545 62.7809 2.13076 63.2485 2.58545 63.3446C3.0085 63.409 3.43857 63.3692 3.86514 63.3774C20.1542 63.3786 36.4421 63.3751 52.7312 63.3786C53.1894 63.3622 53.7437 63.4723 54.0987 63.1008C54.469 62.7481 54.3601 62.1973 54.3765 61.7391C54.373 47.2852 54.3765 32.8313 54.3753 18.3774C36.8757 18.3774 19.3749 18.3774 1.87529 18.3774Z" fill="#0D365C"/>
<path d="M4.37139 12.8087C4.82725 12.7114 5.30068 12.7419 5.7624 12.7712C6.32725 12.8216 6.71279 13.4743 6.50771 13.9981C6.37295 14.4153 5.93232 14.6602 5.50576 14.6274C4.99014 14.6145 4.34443 14.7481 3.97178 14.2923C3.5499 13.8294 3.77256 12.9962 4.37139 12.8087Z" fill="#0D365C"/>
<path d="M9.06356 12.8076C9.51474 12.7127 9.98466 12.7408 10.4429 12.7701C11.0112 12.8158 11.4015 13.4732 11.1952 13.9994C11.0604 14.4142 10.6222 14.6591 10.1968 14.6275C9.67997 14.6146 9.02958 14.7494 8.65692 14.29C8.23622 13.8236 8.46239 12.9916 9.06356 12.8076Z" fill="#0D365C"/>
<path d="M13.7499 12.8075C14.2046 12.7114 14.6804 12.7419 15.1421 12.7723C15.6765 12.8227 16.0562 13.4169 15.905 13.9278C15.7983 14.3755 15.339 14.6637 14.889 14.6274C14.3698 14.6133 13.7183 14.7493 13.3444 14.2899C12.9249 13.8247 13.1499 12.9926 13.7499 12.8075Z" fill="#0D365C"/>
<path d="M24.0636 12.8074C24.4327 12.7148 24.8194 12.7593 25.1956 12.7511C32.385 12.7535 39.5745 12.7511 46.764 12.7523C47.3007 12.6949 47.8257 13.1402 47.8104 13.6875C47.8268 14.2406 47.296 14.6859 46.7569 14.6273C39.4936 14.6297 32.2292 14.6238 24.9659 14.6297C24.5171 14.6273 23.9663 14.6918 23.6569 14.2886C23.2362 13.8246 23.4624 12.9914 24.0636 12.8074Z" fill="#0D365C"/>
<path d="M50.3171 12.8064C50.7694 12.7127 51.2405 12.742 51.6987 12.7713C52.2647 12.8217 52.6503 13.4756 52.4452 14.0006C52.3093 14.4131 51.8745 14.658 51.4526 14.6275C50.9335 14.6135 50.2819 14.7506 49.9081 14.2912C49.4851 13.8248 49.7136 12.9892 50.3171 12.8064Z" fill="#0D365C"/>
<path d="M6.25343 22.1814C6.62257 22.09 7.00811 22.1346 7.38429 22.1264C16.1335 22.1287 24.8827 22.1264 33.6319 22.1275C33.9437 22.1158 34.2718 22.2131 34.4698 22.4662C34.7523 22.792 34.6773 23.2514 34.6901 23.6486C34.6843 29.6639 34.6901 35.6803 34.6878 41.6955C34.7276 42.149 34.4359 42.6213 33.9776 42.7197C33.5921 42.7807 33.1995 42.7478 32.8116 42.7525C24.0987 42.7525 15.387 42.7537 6.67413 42.7525C6.3671 42.7631 6.04249 42.6646 5.84679 42.4162C5.55851 42.0928 5.63585 41.6322 5.62296 41.2349C5.62882 35.2174 5.62296 29.1998 5.6253 23.1822C5.59015 22.7556 5.83624 22.3139 6.25343 22.1814ZM7.5003 24.0025C7.50147 28.9068 7.49913 33.8123 7.50147 38.7166C9.30968 36.0084 11.1132 33.2978 12.9167 30.5861C13.1476 30.2545 13.3409 29.8314 13.7593 29.7037C14.1976 29.5502 14.6921 29.7717 14.9206 30.1642C15.9964 31.7779 17.0722 33.3916 18.1491 35.0041C19.955 32.1189 21.7515 29.2256 23.5655 26.3451C23.9288 25.7322 24.9167 25.7885 25.2331 26.4189C27.7597 30.4607 30.2886 34.5025 32.8116 38.5467C32.8151 33.6986 32.8116 28.8506 32.8128 24.0025C24.3753 24.0025 15.9378 24.0025 7.5003 24.0025ZM16.689 40.8764C21.8136 40.8787 26.9382 40.8764 32.064 40.8775C29.5011 36.7795 26.9382 32.6826 24.3753 28.5846C21.8136 32.6826 19.2542 36.7818 16.689 40.8764ZM8.31475 40.8764C10.3726 40.8764 12.4304 40.881 14.4882 40.874C15.339 39.4959 16.205 38.1271 17.064 36.7537C16.0632 35.256 15.0706 33.7525 14.0628 32.2596C12.1398 35.1271 10.2331 38.0053 8.31475 40.8764Z" fill="#0D365C"/>
<path d="M38.1296 22.1814C38.582 22.0876 39.053 22.1158 39.5124 22.1462C40.0784 22.1966 40.464 22.854 40.2566 23.3779C40.1206 23.7904 39.6835 24.0341 39.2605 24.0025C38.7448 23.9884 38.098 24.1232 37.723 23.6697C37.2976 23.2044 37.5237 22.3642 38.1296 22.1814Z" fill="#0D365C"/>
<path d="M42.8206 22.1801C42.9952 22.1274 43.1804 22.1297 43.362 22.125C45.3929 22.1285 47.4237 22.1285 49.4546 22.125C49.7722 22.118 50.1226 22.1555 50.3499 22.4039C50.7331 22.7684 50.7026 23.4504 50.2901 23.7797C50.03 24.0164 49.6608 24.0035 49.3327 24.0059C47.2585 23.9918 45.1831 24.0153 43.1077 23.9953C42.6636 24.0024 42.2558 23.6426 42.2007 23.2032C42.1245 22.7707 42.4034 22.3137 42.8206 22.1801Z" fill="#0D365C"/>
<path d="M38.1214 25.9336C38.4542 25.8457 38.8034 25.882 39.1444 25.8762C42.6202 25.8797 46.0948 25.8762 49.5706 25.8773C49.8811 25.8656 50.2116 25.9629 50.4085 26.2183C50.7343 26.5945 50.6769 27.225 50.2854 27.5332C50.0581 27.7394 49.7394 27.7547 49.4499 27.7547C45.8171 27.7488 42.1831 27.7547 38.5503 27.7523C38.1554 27.7781 37.7452 27.5754 37.587 27.2039C37.3526 26.7281 37.6175 26.0976 38.1214 25.9336Z" fill="#0D365C"/>
<path d="M38.1225 29.6836C38.4542 29.5957 38.8011 29.6308 39.1409 29.6262C42.619 29.6297 46.096 29.625 49.5741 29.6273C49.969 29.5992 50.3804 29.8031 50.5386 30.1769C50.787 30.6762 50.4718 31.3453 49.9268 31.466C49.5776 31.5269 49.2214 31.5 48.8686 31.5035C45.4304 31.5012 41.9909 31.5035 38.5526 31.5023C38.1565 31.5293 37.7429 31.3254 37.5847 30.9492C37.3538 30.4746 37.6198 29.8453 38.1225 29.6836Z" fill="#0D365C"/>
<path d="M38.1272 33.4313C38.4565 33.3469 38.8011 33.3809 39.1374 33.3762C42.6155 33.3797 46.0925 33.375 49.5694 33.3774C49.9632 33.3481 50.3757 33.5497 50.5362 33.9223C50.8362 34.5012 50.3511 35.2711 49.6995 35.2454C46.0222 35.2629 42.346 35.2442 38.6687 35.2547C38.2995 35.2758 37.8858 35.1832 37.6726 34.8528C37.3116 34.377 37.5554 33.6082 38.1272 33.4313Z" fill="#0D365C"/>
<path d="M38.1261 37.1825C38.4952 37.0899 38.8808 37.1344 39.2569 37.1262C42.6964 37.1286 46.1358 37.1262 49.5753 37.1274C49.9972 37.0946 50.4319 37.3383 50.5679 37.7497C50.7999 38.3239 50.3159 39.02 49.696 38.9954C45.9812 39.0106 42.2651 38.9989 38.5503 39.0024C38.1577 39.0282 37.7487 38.8278 37.5882 38.4575C37.3503 37.9794 37.6187 37.3442 38.1261 37.1825Z" fill="#0D365C"/>
<path d="M38.1308 40.9301C38.3042 40.8786 38.4882 40.8798 38.6687 40.8751C40.7394 40.8809 42.8112 40.8751 44.8831 40.8774C45.3343 40.8364 45.7972 41.1247 45.905 41.5758C46.0749 42.1383 45.5968 42.7665 45.0085 42.7454C42.8593 42.7606 40.7077 42.7489 38.5573 42.7524C38.1601 42.7817 37.7452 42.5766 37.5847 42.2016C37.3515 41.7223 37.6233 41.0895 38.1308 40.9301Z" fill="#0D365C"/>
<path d="M48.4374 40.9324C48.8897 40.8375 49.3608 40.8668 49.819 40.8949C50.3593 40.9406 50.746 41.5394 50.5913 42.055C50.4835 42.5027 50.0241 42.7886 49.5753 42.7523C49.055 42.7394 48.4011 42.8742 48.0284 42.4101C47.6124 41.9437 47.8397 41.1164 48.4374 40.9324Z" fill="#0D365C"/>
<path d="M6.25577 46.5552C6.58624 46.472 6.93077 46.506 7.2671 46.5013C10.7464 46.5048 14.2257 46.5001 17.705 46.5025C18.1526 46.465 18.6155 46.7544 18.7151 47.2044C18.7737 47.5525 18.748 47.9064 18.7515 48.2579C18.7491 51.6951 18.7515 55.1322 18.7503 58.5693C18.7667 58.9079 18.639 59.2665 18.3448 59.4576C18.0894 59.6486 17.7554 59.6228 17.4542 59.631C13.8226 59.6181 10.1898 59.638 6.55929 59.6216C6.00499 59.6404 5.56436 59.106 5.6253 58.5681C5.6253 54.8966 5.62413 51.224 5.6253 47.5513C5.59132 47.1259 5.84093 46.6865 6.25577 46.5552ZM7.5003 48.3775C7.5003 51.5029 7.5003 54.6271 7.5003 57.7525C10.6257 57.7525 13.7499 57.7525 16.8753 57.7525C16.8753 54.6271 16.8753 51.5029 16.8753 48.3775C13.7499 48.3775 10.6257 48.3775 7.5003 48.3775Z" fill="#0D365C"/>
<path d="M22.1909 46.5564C22.4065 46.4932 22.6339 46.5037 22.8554 46.499C26.4894 46.5119 30.1245 46.492 33.7573 46.5084C34.3081 46.4896 34.7452 47.0229 34.6878 47.5572C34.6878 51.2311 34.6878 54.9037 34.6878 58.5764C34.7429 59.1072 34.3105 59.6346 33.7644 59.6205C30.1304 59.6393 26.4952 59.6182 22.8601 59.6311C22.5565 59.6229 22.2202 59.6486 21.9636 59.4564C21.673 59.2643 21.5452 58.9104 21.5628 58.5729C21.5628 54.9002 21.5628 51.2264 21.5628 47.5525C21.5288 47.1283 21.7761 46.69 22.1909 46.5564ZM23.4378 48.3775C23.4378 51.5029 23.4378 54.6271 23.4378 57.7525C26.5632 57.7525 29.6874 57.7525 32.8128 57.7525C32.8128 54.6271 32.8128 51.5029 32.8128 48.3775C29.6874 48.3775 26.5632 48.3775 23.4378 48.3775Z" fill="#0D365C"/>
<path d="M38.1308 46.5562C38.3042 46.5035 38.487 46.5047 38.6675 46.5C42.3026 46.5059 45.9378 46.5 49.5718 46.5023C50.1062 46.4437 50.6359 46.882 50.6183 47.4305C50.6359 51.1066 50.6171 54.7828 50.6276 58.459C50.6335 58.773 50.596 59.1223 50.3511 59.3484C50.1237 59.5969 49.7722 59.6367 49.4558 59.6297C45.8218 59.6238 42.189 59.6297 38.555 59.6273C38.0218 59.6848 37.4898 59.25 37.5073 58.7016C37.4909 54.9855 37.5038 51.2683 37.5003 47.5523C37.4651 47.1269 37.7136 46.6875 38.1308 46.5562ZM39.3753 48.3773C39.3753 51.5027 39.3753 54.6269 39.3753 57.7523C42.5007 57.7523 45.6249 57.7523 48.7503 57.7523C48.7503 54.6269 48.7503 51.5027 48.7503 48.3773C45.6249 48.3773 42.5007 48.3773 39.3753 48.3773Z" fill="#0D365C"/>
</svg>
